<mxfile host="app.diagrams.net" agent="Mozilla/5.0 (Windows NT 10.0; Win64; x64) AppleWebKit/537.36 (KHTML, like Gecko) Chrome/130.0.0.0 Safari/537.36" version="24.8.4">
  <diagram id="C5RBs43oDa-KdzZeNtuy" name="Page-1">
    <mxGraphModel dx="872" dy="511" grid="1" gridSize="10" guides="1" tooltips="1" connect="1" arrows="1" fold="1" page="1" pageScale="1" pageWidth="827" pageHeight="1169" math="0" shadow="0">
      <root>
        <mxCell id="WIyWlLk6GJQsqaUBKTNV-0" />
        <mxCell id="WIyWlLk6GJQsqaUBKTNV-1" parent="WIyWlLk6GJQsqaUBKTNV-0" />
        <mxCell id="zkfFHV4jXpPFQw0GAbJ--0" value="ShellyScheduleCreateController" style="swimlane;fontStyle=2;align=center;verticalAlign=top;childLayout=stackLayout;horizontal=1;startSize=26;horizontalStack=0;resizeParent=1;resizeLast=0;collapsible=1;marginBottom=0;rounded=0;shadow=0;strokeWidth=1;" parent="WIyWlLk6GJQsqaUBKTNV-1" vertex="1">
          <mxGeometry x="90" y="120" width="290" height="140" as="geometry">
            <mxRectangle x="230" y="140" width="160" height="26" as="alternateBounds" />
          </mxGeometry>
        </mxCell>
        <mxCell id="zkfFHV4jXpPFQw0GAbJ--1" value="schedule_tmr : HmTmr" style="text;align=left;verticalAlign=top;spacingLeft=4;spacingRight=4;overflow=hidden;rotatable=0;points=[[0,0.5],[1,0.5]];portConstraint=eastwest;" parent="zkfFHV4jXpPFQw0GAbJ--0" vertex="1">
          <mxGeometry y="26" width="290" height="26" as="geometry" />
        </mxCell>
        <mxCell id="zkfFHV4jXpPFQw0GAbJ--2" value="start_time : uint32_t" style="text;align=left;verticalAlign=top;spacingLeft=4;spacingRight=4;overflow=hidden;rotatable=0;points=[[0,0.5],[1,0.5]];portConstraint=eastwest;rounded=0;shadow=0;html=0;" parent="zkfFHV4jXpPFQw0GAbJ--0" vertex="1">
          <mxGeometry y="52" width="290" height="26" as="geometry" />
        </mxCell>
        <mxCell id="zkfFHV4jXpPFQw0GAbJ--3" value="seq_array[20] : int" style="text;align=left;verticalAlign=top;spacingLeft=4;spacingRight=4;overflow=hidden;rotatable=0;points=[[0,0.5],[1,0.5]];portConstraint=eastwest;rounded=0;shadow=0;html=0;" parent="zkfFHV4jXpPFQw0GAbJ--0" vertex="1">
          <mxGeometry y="78" width="290" height="26" as="geometry" />
        </mxCell>
        <mxCell id="PG6WniDf5yg5BW96tbUo-1" value="schedule_create_ack : ShellyScheduleCreateAck" style="text;align=left;verticalAlign=top;spacingLeft=4;spacingRight=4;overflow=hidden;rotatable=0;points=[[0,0.5],[1,0.5]];portConstraint=eastwest;rounded=0;shadow=0;html=0;" vertex="1" parent="zkfFHV4jXpPFQw0GAbJ--0">
          <mxGeometry y="104" width="290" height="26" as="geometry" />
        </mxCell>
        <mxCell id="zkfFHV4jXpPFQw0GAbJ--17" value="ShellyScheduleCreateAck" style="swimlane;fontStyle=2;align=center;verticalAlign=top;childLayout=stackLayout;horizontal=1;startSize=26;horizontalStack=0;resizeParent=1;resizeLast=0;collapsible=1;marginBottom=0;rounded=0;shadow=0;strokeWidth=1;" parent="WIyWlLk6GJQsqaUBKTNV-1" vertex="1">
          <mxGeometry x="508" y="120" width="362" height="240" as="geometry">
            <mxRectangle x="550" y="140" width="160" height="26" as="alternateBounds" />
          </mxGeometry>
        </mxCell>
        <mxCell id="zkfFHV4jXpPFQw0GAbJ--18" value="name[SHELLY_DEV_NAME_LEN] : char" style="text;align=left;verticalAlign=top;spacingLeft=4;spacingRight=4;overflow=hidden;rotatable=0;points=[[0,0.5],[1,0.5]];portConstraint=eastwest;" parent="zkfFHV4jXpPFQw0GAbJ--17" vertex="1">
          <mxGeometry y="26" width="362" height="26" as="geometry" />
        </mxCell>
        <mxCell id="zkfFHV4jXpPFQw0GAbJ--19" value="seq : int" style="text;align=left;verticalAlign=top;spacingLeft=4;spacingRight=4;overflow=hidden;rotatable=0;points=[[0,0.5],[1,0.5]];portConstraint=eastwest;rounded=0;shadow=0;html=0;" parent="zkfFHV4jXpPFQw0GAbJ--17" vertex="1">
          <mxGeometry y="52" width="362" height="26" as="geometry" />
        </mxCell>
        <mxCell id="zkfFHV4jXpPFQw0GAbJ--20" value="timeout_ms : uint32_t" style="text;align=left;verticalAlign=top;spacingLeft=4;spacingRight=4;overflow=hidden;rotatable=0;points=[[0,0.5],[1,0.5]];portConstraint=eastwest;rounded=0;shadow=0;html=0;" parent="zkfFHV4jXpPFQw0GAbJ--17" vertex="1">
          <mxGeometry y="78" width="362" height="26" as="geometry" />
        </mxCell>
        <mxCell id="zkfFHV4jXpPFQw0GAbJ--21" value="list : ShellyScheduleList  *" style="text;align=left;verticalAlign=top;spacingLeft=4;spacingRight=4;overflow=hidden;rotatable=0;points=[[0,0.5],[1,0.5]];portConstraint=eastwest;rounded=0;shadow=0;html=0;" parent="zkfFHV4jXpPFQw0GAbJ--17" vertex="1">
          <mxGeometry y="104" width="362" height="26" as="geometry" />
        </mxCell>
        <mxCell id="zkfFHV4jXpPFQw0GAbJ--22" value="total : int" style="text;align=left;verticalAlign=top;spacingLeft=4;spacingRight=4;overflow=hidden;rotatable=0;points=[[0,0.5],[1,0.5]];portConstraint=eastwest;rounded=0;shadow=0;html=0;" parent="zkfFHV4jXpPFQw0GAbJ--17" vertex="1">
          <mxGeometry y="130" width="362" height="26" as="geometry" />
        </mxCell>
        <mxCell id="PG6WniDf5yg5BW96tbUo-2" value="mask : uint32_t" style="text;align=left;verticalAlign=top;spacingLeft=4;spacingRight=4;overflow=hidden;rotatable=0;points=[[0,0.5],[1,0.5]];portConstraint=eastwest;rounded=0;shadow=0;html=0;" vertex="1" parent="zkfFHV4jXpPFQw0GAbJ--17">
          <mxGeometry y="156" width="362" height="26" as="geometry" />
        </mxCell>
        <mxCell id="PG6WniDf5yg5BW96tbUo-3" value="item_index : int" style="text;align=left;verticalAlign=top;spacingLeft=4;spacingRight=4;overflow=hidden;rotatable=0;points=[[0,0.5],[1,0.5]];portConstraint=eastwest;rounded=0;shadow=0;html=0;" vertex="1" parent="zkfFHV4jXpPFQw0GAbJ--17">
          <mxGeometry y="182" width="362" height="26" as="geometry" />
        </mxCell>
        <mxCell id="PG6WniDf5yg5BW96tbUo-4" value="working_state : int" style="text;align=left;verticalAlign=top;spacingLeft=4;spacingRight=4;overflow=hidden;rotatable=0;points=[[0,0.5],[1,0.5]];portConstraint=eastwest;rounded=0;shadow=0;html=0;" vertex="1" parent="zkfFHV4jXpPFQw0GAbJ--17">
          <mxGeometry y="208" width="362" height="26" as="geometry" />
        </mxCell>
        <mxCell id="zkfFHV4jXpPFQw0GAbJ--26" value="" style="endArrow=open;shadow=0;strokeWidth=1;rounded=0;curved=0;endFill=1;edgeStyle=elbowEdgeStyle;elbow=vertical;startArrow=none;startFill=0;strokeColor=none;" parent="WIyWlLk6GJQsqaUBKTNV-1" source="zkfFHV4jXpPFQw0GAbJ--0" target="zkfFHV4jXpPFQw0GAbJ--17" edge="1">
          <mxGeometry x="0.5" y="41" relative="1" as="geometry">
            <mxPoint x="380" y="192" as="sourcePoint" />
            <mxPoint x="540" y="192" as="targetPoint" />
            <mxPoint x="-40" y="32" as="offset" />
          </mxGeometry>
        </mxCell>
        <mxCell id="zkfFHV4jXpPFQw0GAbJ--27" value="" style="resizable=0;align=left;verticalAlign=bottom;labelBackgroundColor=none;fontSize=12;" parent="zkfFHV4jXpPFQw0GAbJ--26" connectable="0" vertex="1">
          <mxGeometry x="-1" relative="1" as="geometry">
            <mxPoint y="4" as="offset" />
          </mxGeometry>
        </mxCell>
        <mxCell id="zkfFHV4jXpPFQw0GAbJ--28" value="" style="resizable=0;align=right;verticalAlign=bottom;labelBackgroundColor=none;fontSize=12;" parent="zkfFHV4jXpPFQw0GAbJ--26" connectable="0" vertex="1">
          <mxGeometry x="1" relative="1" as="geometry">
            <mxPoint x="-7" y="4" as="offset" />
          </mxGeometry>
        </mxCell>
        <mxCell id="PG6WniDf5yg5BW96tbUo-7" style="rounded=0;orthogonalLoop=1;jettySize=auto;html=1;entryX=0;entryY=0.5;entryDx=0;entryDy=0;endArrow=none;endFill=0;" edge="1" parent="WIyWlLk6GJQsqaUBKTNV-1" source="zkfFHV4jXpPFQw0GAbJ--2" target="zkfFHV4jXpPFQw0GAbJ--19">
          <mxGeometry relative="1" as="geometry" />
        </mxCell>
        <mxCell id="PG6WniDf5yg5BW96tbUo-9" value="ShellyScheduleList" style="swimlane;fontStyle=2;align=center;verticalAlign=top;childLayout=stackLayout;horizontal=1;startSize=26;horizontalStack=0;resizeParent=1;resizeLast=0;collapsible=1;marginBottom=0;rounded=0;shadow=0;strokeWidth=1;" vertex="1" parent="WIyWlLk6GJQsqaUBKTNV-1">
          <mxGeometry x="940" y="120" width="362" height="220" as="geometry">
            <mxRectangle x="550" y="140" width="160" height="26" as="alternateBounds" />
          </mxGeometry>
        </mxCell>
        <mxCell id="PG6WniDf5yg5BW96tbUo-10" value="name[SHELLY_DEV_NAME_LEN] : char" style="text;align=left;verticalAlign=top;spacingLeft=4;spacingRight=4;overflow=hidden;rotatable=0;points=[[0,0.5],[1,0.5]];portConstraint=eastwest;" vertex="1" parent="PG6WniDf5yg5BW96tbUo-9">
          <mxGeometry y="26" width="362" height="26" as="geometry" />
        </mxCell>
        <mxCell id="PG6WniDf5yg5BW96tbUo-11" value="sch_num : uint8_t" style="text;align=left;verticalAlign=top;spacingLeft=4;spacingRight=4;overflow=hidden;rotatable=0;points=[[0,0.5],[1,0.5]];portConstraint=eastwest;rounded=0;shadow=0;html=0;" vertex="1" parent="PG6WniDf5yg5BW96tbUo-9">
          <mxGeometry y="52" width="362" height="26" as="geometry" />
        </mxCell>
        <mxCell id="PG6WniDf5yg5BW96tbUo-12" value="total : uint8_t" style="text;align=left;verticalAlign=top;spacingLeft=4;spacingRight=4;overflow=hidden;rotatable=0;points=[[0,0.5],[1,0.5]];portConstraint=eastwest;rounded=0;shadow=0;html=0;" vertex="1" parent="PG6WniDf5yg5BW96tbUo-9">
          <mxGeometry y="78" width="362" height="26" as="geometry" />
        </mxCell>
        <mxCell id="PG6WniDf5yg5BW96tbUo-13" value="rev : uint32_t" style="text;align=left;verticalAlign=top;spacingLeft=4;spacingRight=4;overflow=hidden;rotatable=0;points=[[0,0.5],[1,0.5]];portConstraint=eastwest;rounded=0;shadow=0;html=0;" vertex="1" parent="PG6WniDf5yg5BW96tbUo-9">
          <mxGeometry y="104" width="362" height="26" as="geometry" />
        </mxCell>
        <mxCell id="PG6WniDf5yg5BW96tbUo-14" value="seq : int" style="text;align=left;verticalAlign=top;spacingLeft=4;spacingRight=4;overflow=hidden;rotatable=0;points=[[0,0.5],[1,0.5]];portConstraint=eastwest;rounded=0;shadow=0;html=0;" vertex="1" parent="PG6WniDf5yg5BW96tbUo-9">
          <mxGeometry y="130" width="362" height="26" as="geometry" />
        </mxCell>
        <mxCell id="PG6WniDf5yg5BW96tbUo-15" value="timeout : uint32_t" style="text;align=left;verticalAlign=top;spacingLeft=4;spacingRight=4;overflow=hidden;rotatable=0;points=[[0,0.5],[1,0.5]];portConstraint=eastwest;rounded=0;shadow=0;html=0;" vertex="1" parent="PG6WniDf5yg5BW96tbUo-9">
          <mxGeometry y="156" width="362" height="26" as="geometry" />
        </mxCell>
        <mxCell id="PG6WniDf5yg5BW96tbUo-16" value="item[20] : ScheduleListItem" style="text;align=left;verticalAlign=top;spacingLeft=4;spacingRight=4;overflow=hidden;rotatable=0;points=[[0,0.5],[1,0.5]];portConstraint=eastwest;rounded=0;shadow=0;html=0;" vertex="1" parent="PG6WniDf5yg5BW96tbUo-9">
          <mxGeometry y="182" width="362" height="26" as="geometry" />
        </mxCell>
        <mxCell id="PG6WniDf5yg5BW96tbUo-18" style="edgeStyle=orthogonalEdgeStyle;rounded=0;orthogonalLoop=1;jettySize=auto;html=1;entryX=0;entryY=0.5;entryDx=0;entryDy=0;endArrow=none;endFill=0;" edge="1" parent="WIyWlLk6GJQsqaUBKTNV-1" source="zkfFHV4jXpPFQw0GAbJ--19" target="PG6WniDf5yg5BW96tbUo-11">
          <mxGeometry relative="1" as="geometry" />
        </mxCell>
        <mxCell id="PG6WniDf5yg5BW96tbUo-19" value="ScheduleListItem" style="swimlane;fontStyle=2;align=center;verticalAlign=top;childLayout=stackLayout;horizontal=1;startSize=26;horizontalStack=0;resizeParent=1;resizeLast=0;collapsible=1;marginBottom=0;rounded=0;shadow=0;strokeWidth=1;" vertex="1" parent="WIyWlLk6GJQsqaUBKTNV-1">
          <mxGeometry x="1420" y="120" width="362" height="230" as="geometry">
            <mxRectangle x="550" y="140" width="160" height="26" as="alternateBounds" />
          </mxGeometry>
        </mxCell>
        <mxCell id="PG6WniDf5yg5BW96tbUo-20" value="sch_id : uint16_t" style="text;align=left;verticalAlign=top;spacingLeft=4;spacingRight=4;overflow=hidden;rotatable=0;points=[[0,0.5],[1,0.5]];portConstraint=eastwest;" vertex="1" parent="PG6WniDf5yg5BW96tbUo-19">
          <mxGeometry y="26" width="362" height="26" as="geometry" />
        </mxCell>
        <mxCell id="PG6WniDf5yg5BW96tbUo-21" value="enable : uint8_t" style="text;align=left;verticalAlign=top;spacingLeft=4;spacingRight=4;overflow=hidden;rotatable=0;points=[[0,0.5],[1,0.5]];portConstraint=eastwest;rounded=0;shadow=0;html=0;" vertex="1" parent="PG6WniDf5yg5BW96tbUo-19">
          <mxGeometry y="52" width="362" height="26" as="geometry" />
        </mxCell>
        <mxCell id="PG6WniDf5yg5BW96tbUo-22" value="call_type : ShlyCmds" style="text;align=left;verticalAlign=top;spacingLeft=4;spacingRight=4;overflow=hidden;rotatable=0;points=[[0,0.5],[1,0.5]];portConstraint=eastwest;rounded=0;shadow=0;html=0;" vertex="1" parent="PG6WniDf5yg5BW96tbUo-19">
          <mxGeometry y="78" width="362" height="26" as="geometry" />
        </mxCell>
        <mxCell id="PG6WniDf5yg5BW96tbUo-23" value="time[SHELLY_SCHEDULE_TIME_SPEC_LEN] : char" style="text;align=left;verticalAlign=top;spacingLeft=4;spacingRight=4;overflow=hidden;rotatable=0;points=[[0,0.5],[1,0.5]];portConstraint=eastwest;rounded=0;shadow=0;html=0;" vertex="1" parent="PG6WniDf5yg5BW96tbUo-19">
          <mxGeometry y="104" width="362" height="26" as="geometry" />
        </mxCell>
        <mxCell id="PG6WniDf5yg5BW96tbUo-24" value="sw : typedef struct&#xa;    {&#xa;        int channel;&#xa;        int output; // relay status&#xa;&#xa;    } SwitchAction" style="text;align=left;verticalAlign=top;spacingLeft=4;spacingRight=4;overflow=hidden;rotatable=0;points=[[0,0.5],[1,0.5]];portConstraint=eastwest;rounded=0;shadow=0;html=0;" vertex="1" parent="PG6WniDf5yg5BW96tbUo-19">
          <mxGeometry y="130" width="362" height="100" as="geometry" />
        </mxCell>
        <mxCell id="PG6WniDf5yg5BW96tbUo-27" style="edgeStyle=orthogonalEdgeStyle;rounded=0;orthogonalLoop=1;jettySize=auto;html=1;entryX=0;entryY=0.5;entryDx=0;entryDy=0;endArrow=none;endFill=0;" edge="1" parent="WIyWlLk6GJQsqaUBKTNV-1" source="PG6WniDf5yg5BW96tbUo-11" target="PG6WniDf5yg5BW96tbUo-21">
          <mxGeometry relative="1" as="geometry" />
        </mxCell>
        <mxCell id="PG6WniDf5yg5BW96tbUo-28" value="ShellyScheduleDeleteController" style="swimlane;fontStyle=2;align=center;verticalAlign=top;childLayout=stackLayout;horizontal=1;startSize=26;horizontalStack=0;resizeParent=1;resizeLast=0;collapsible=1;marginBottom=0;rounded=0;shadow=0;strokeWidth=1;" vertex="1" parent="WIyWlLk6GJQsqaUBKTNV-1">
          <mxGeometry x="80" y="400" width="362" height="312" as="geometry">
            <mxRectangle x="550" y="140" width="160" height="26" as="alternateBounds" />
          </mxGeometry>
        </mxCell>
        <mxCell id="PG6WniDf5yg5BW96tbUo-29" value="name[SHELLY_DEV_NAME_LEN] : char" style="text;align=left;verticalAlign=top;spacingLeft=4;spacingRight=4;overflow=hidden;rotatable=0;points=[[0,0.5],[1,0.5]];portConstraint=eastwest;" vertex="1" parent="PG6WniDf5yg5BW96tbUo-28">
          <mxGeometry y="26" width="362" height="26" as="geometry" />
        </mxCell>
        <mxCell id="PG6WniDf5yg5BW96tbUo-30" value="schedule_tmr : HmTmr" style="text;align=left;verticalAlign=top;spacingLeft=4;spacingRight=4;overflow=hidden;rotatable=0;points=[[0,0.5],[1,0.5]];portConstraint=eastwest;rounded=0;shadow=0;html=0;" vertex="1" parent="PG6WniDf5yg5BW96tbUo-28">
          <mxGeometry y="52" width="362" height="26" as="geometry" />
        </mxCell>
        <mxCell id="PG6WniDf5yg5BW96tbUo-31" value="start_time : uint32_t" style="text;align=left;verticalAlign=top;spacingLeft=4;spacingRight=4;overflow=hidden;rotatable=0;points=[[0,0.5],[1,0.5]];portConstraint=eastwest;rounded=0;shadow=0;html=0;" vertex="1" parent="PG6WniDf5yg5BW96tbUo-28">
          <mxGeometry y="78" width="362" height="26" as="geometry" />
        </mxCell>
        <mxCell id="PG6WniDf5yg5BW96tbUo-32" value="timeout : uint32_t" style="text;align=left;verticalAlign=top;spacingLeft=4;spacingRight=4;overflow=hidden;rotatable=0;points=[[0,0.5],[1,0.5]];portConstraint=eastwest;rounded=0;shadow=0;html=0;" vertex="1" parent="PG6WniDf5yg5BW96tbUo-28">
          <mxGeometry y="104" width="362" height="26" as="geometry" />
        </mxCell>
        <mxCell id="PG6WniDf5yg5BW96tbUo-33" value="seq_array[20] : int" style="text;align=left;verticalAlign=top;spacingLeft=4;spacingRight=4;overflow=hidden;rotatable=0;points=[[0,0.5],[1,0.5]];portConstraint=eastwest;rounded=0;shadow=0;html=0;" vertex="1" parent="PG6WniDf5yg5BW96tbUo-28">
          <mxGeometry y="130" width="362" height="26" as="geometry" />
        </mxCell>
        <mxCell id="PG6WniDf5yg5BW96tbUo-34" value="app_seq : int" style="text;align=left;verticalAlign=top;spacingLeft=4;spacingRight=4;overflow=hidden;rotatable=0;points=[[0,0.5],[1,0.5]];portConstraint=eastwest;rounded=0;shadow=0;html=0;" vertex="1" parent="PG6WniDf5yg5BW96tbUo-28">
          <mxGeometry y="156" width="362" height="26" as="geometry" />
        </mxCell>
        <mxCell id="PG6WniDf5yg5BW96tbUo-35" value="working_state : int" style="text;align=left;verticalAlign=top;spacingLeft=4;spacingRight=4;overflow=hidden;rotatable=0;points=[[0,0.5],[1,0.5]];portConstraint=eastwest;rounded=0;shadow=0;html=0;" vertex="1" parent="PG6WniDf5yg5BW96tbUo-28">
          <mxGeometry y="182" width="362" height="26" as="geometry" />
        </mxCell>
        <mxCell id="PG6WniDf5yg5BW96tbUo-36" value="total : int" style="text;align=left;verticalAlign=top;spacingLeft=4;spacingRight=4;overflow=hidden;rotatable=0;points=[[0,0.5],[1,0.5]];portConstraint=eastwest;rounded=0;shadow=0;html=0;" vertex="1" parent="PG6WniDf5yg5BW96tbUo-28">
          <mxGeometry y="208" width="362" height="26" as="geometry" />
        </mxCell>
        <mxCell id="PG6WniDf5yg5BW96tbUo-37" value="mask : uint32_t" style="text;align=left;verticalAlign=top;spacingLeft=4;spacingRight=4;overflow=hidden;rotatable=0;points=[[0,0.5],[1,0.5]];portConstraint=eastwest;rounded=0;shadow=0;html=0;" vertex="1" parent="PG6WniDf5yg5BW96tbUo-28">
          <mxGeometry y="234" width="362" height="26" as="geometry" />
        </mxCell>
        <mxCell id="PG6WniDf5yg5BW96tbUo-38" value="item_index : int" style="text;align=left;verticalAlign=top;spacingLeft=4;spacingRight=4;overflow=hidden;rotatable=0;points=[[0,0.5],[1,0.5]];portConstraint=eastwest;rounded=0;shadow=0;html=0;" vertex="1" parent="PG6WniDf5yg5BW96tbUo-28">
          <mxGeometry y="260" width="362" height="26" as="geometry" />
        </mxCell>
        <mxCell id="PG6WniDf5yg5BW96tbUo-39" value="sch_id[20] : uint16_t" style="text;align=left;verticalAlign=top;spacingLeft=4;spacingRight=4;overflow=hidden;rotatable=0;points=[[0,0.5],[1,0.5]];portConstraint=eastwest;rounded=0;shadow=0;html=0;" vertex="1" parent="PG6WniDf5yg5BW96tbUo-28">
          <mxGeometry y="286" width="362" height="26" as="geometry" />
        </mxCell>
        <mxCell id="PG6WniDf5yg5BW96tbUo-40" value="日程批量创建" style="swimlane;html=1;childLayout=stackLayout;startSize=20;rounded=0;shadow=0;labelBackgroundColor=none;strokeWidth=1;fontFamily=Verdana;fontSize=8;align=center;" vertex="1" parent="WIyWlLk6GJQsqaUBKTNV-1">
          <mxGeometry x="80" y="780" width="2210" height="1890" as="geometry" />
        </mxCell>
        <mxCell id="PG6WniDf5yg5BW96tbUo-41" value="应用层" style="swimlane;html=1;startSize=20;" vertex="1" parent="PG6WniDf5yg5BW96tbUo-40">
          <mxGeometry y="20" width="160" height="1870" as="geometry" />
        </mxCell>
        <mxCell id="PG6WniDf5yg5BW96tbUo-42" value="发送批量创建日程请求" style="rounded=1;whiteSpace=wrap;html=1;shadow=0;labelBackgroundColor=none;strokeWidth=1;fontFamily=Verdana;fontSize=8;align=center;" vertex="1" parent="PG6WniDf5yg5BW96tbUo-41">
          <mxGeometry x="20" y="65" width="100" height="60" as="geometry" />
        </mxCell>
        <mxCell id="PG6WniDf5yg5BW96tbUo-93" value="应用层处理" style="rounded=1;whiteSpace=wrap;html=1;" vertex="1" parent="PG6WniDf5yg5BW96tbUo-41">
          <mxGeometry x="10" y="470" width="120" height="60" as="geometry" />
        </mxCell>
        <mxCell id="PG6WniDf5yg5BW96tbUo-45" style="edgeStyle=orthogonalEdgeStyle;rounded=1;html=1;labelBackgroundColor=none;startArrow=none;startFill=0;startSize=5;endArrow=classicThin;endFill=1;endSize=5;jettySize=auto;orthogonalLoop=1;strokeWidth=1;fontFamily=Verdana;fontSize=8" edge="1" parent="PG6WniDf5yg5BW96tbUo-40" source="PG6WniDf5yg5BW96tbUo-42" target="PG6WniDf5yg5BW96tbUo-61">
          <mxGeometry relative="1" as="geometry" />
        </mxCell>
        <mxCell id="PG6WniDf5yg5BW96tbUo-60" value="局域网" style="swimlane;html=1;startSize=20;" vertex="1" parent="PG6WniDf5yg5BW96tbUo-40">
          <mxGeometry x="160" y="20" width="410" height="1870" as="geometry" />
        </mxCell>
        <mxCell id="PG6WniDf5yg5BW96tbUo-88" value="" style="edgeStyle=orthogonalEdgeStyle;rounded=0;orthogonalLoop=1;jettySize=auto;html=1;entryX=0.5;entryY=0;entryDx=0;entryDy=0;" edge="1" parent="PG6WniDf5yg5BW96tbUo-60" source="PG6WniDf5yg5BW96tbUo-61" target="PG6WniDf5yg5BW96tbUo-91">
          <mxGeometry relative="1" as="geometry">
            <mxPoint x="260" y="205" as="targetPoint" />
          </mxGeometry>
        </mxCell>
        <mxCell id="PG6WniDf5yg5BW96tbUo-61" value="接收批量创建日程请求" style="rounded=1;whiteSpace=wrap;html=1;shadow=0;labelBackgroundColor=none;strokeWidth=1;fontFamily=Verdana;fontSize=8;align=center;" vertex="1" parent="PG6WniDf5yg5BW96tbUo-60">
          <mxGeometry x="210" y="65" width="100" height="60" as="geometry" />
        </mxCell>
        <mxCell id="PG6WniDf5yg5BW96tbUo-97" style="edgeStyle=orthogonalEdgeStyle;rounded=0;orthogonalLoop=1;jettySize=auto;html=1;entryX=0.5;entryY=0;entryDx=0;entryDy=0;" edge="1" parent="PG6WniDf5yg5BW96tbUo-60" source="PG6WniDf5yg5BW96tbUo-91" target="PG6WniDf5yg5BW96tbUo-92">
          <mxGeometry relative="1" as="geometry" />
        </mxCell>
        <mxCell id="PG6WniDf5yg5BW96tbUo-98" value="Y" style="edgeLabel;html=1;align=center;verticalAlign=middle;resizable=0;points=[];" vertex="1" connectable="0" parent="PG6WniDf5yg5BW96tbUo-97">
          <mxGeometry x="-0.3901" relative="1" as="geometry">
            <mxPoint as="offset" />
          </mxGeometry>
        </mxCell>
        <mxCell id="PG6WniDf5yg5BW96tbUo-91" value="日程创建、删除控制器都不在工作" style="rhombus;whiteSpace=wrap;html=1;" vertex="1" parent="PG6WniDf5yg5BW96tbUo-60">
          <mxGeometry x="220" y="170" width="80" height="80" as="geometry" />
        </mxCell>
        <mxCell id="PG6WniDf5yg5BW96tbUo-92" value="&lt;ol&gt;&lt;li style=&quot;&quot;&gt;&lt;span style=&quot;background-color: initial;&quot;&gt;初始化日程创建控制器、&lt;/span&gt;&lt;/li&gt;&lt;li style=&quot;&quot;&gt;&lt;span style=&quot;background-color: initial;&quot;&gt;初始化成功序列队列、失败序列队列、序列拦截器队列&lt;/span&gt;&lt;/li&gt;&lt;li style=&quot;&quot;&gt;创建软件定时器&lt;/li&gt;&lt;/ol&gt;" style="rounded=1;whiteSpace=wrap;html=1;align=left;fillStyle=auto;gradientColor=none;" vertex="1" parent="PG6WniDf5yg5BW96tbUo-60">
          <mxGeometry x="176.25" y="320" width="167.5" height="130" as="geometry" />
        </mxCell>
        <mxCell id="PG6WniDf5yg5BW96tbUo-94" style="edgeStyle=orthogonalEdgeStyle;rounded=1;orthogonalLoop=1;jettySize=auto;html=1;entryX=1;entryY=0.5;entryDx=0;entryDy=0;curved=0;" edge="1" parent="PG6WniDf5yg5BW96tbUo-40" source="PG6WniDf5yg5BW96tbUo-91" target="PG6WniDf5yg5BW96tbUo-93">
          <mxGeometry relative="1" as="geometry" />
        </mxCell>
        <mxCell id="PG6WniDf5yg5BW96tbUo-95" value="发送busy响应" style="edgeLabel;html=1;align=center;verticalAlign=middle;resizable=0;points=[];" vertex="1" connectable="0" parent="PG6WniDf5yg5BW96tbUo-94">
          <mxGeometry x="0.1109" y="1" relative="1" as="geometry">
            <mxPoint as="offset" />
          </mxGeometry>
        </mxCell>
        <mxCell id="PG6WniDf5yg5BW96tbUo-96" value="N" style="edgeLabel;html=1;align=center;verticalAlign=middle;resizable=0;points=[];" vertex="1" connectable="0" parent="PG6WniDf5yg5BW96tbUo-94">
          <mxGeometry x="-0.4109" y="1" relative="1" as="geometry">
            <mxPoint as="offset" />
          </mxGeometry>
        </mxCell>
        <mxCell id="PG6WniDf5yg5BW96tbUo-62" value="软件定时器" style="swimlane;html=1;startSize=20;" vertex="1" parent="PG6WniDf5yg5BW96tbUo-40">
          <mxGeometry x="570" y="20" width="610" height="1870" as="geometry" />
        </mxCell>
        <mxCell id="PG6WniDf5yg5BW96tbUo-102" value="" style="edgeStyle=orthogonalEdgeStyle;rounded=0;orthogonalLoop=1;jettySize=auto;html=1;" edge="1" parent="PG6WniDf5yg5BW96tbUo-62" source="PG6WniDf5yg5BW96tbUo-63" target="PG6WniDf5yg5BW96tbUo-101">
          <mxGeometry relative="1" as="geometry" />
        </mxCell>
        <mxCell id="PG6WniDf5yg5BW96tbUo-63" value="重新创建自己" style="rounded=1;whiteSpace=wrap;html=1;shadow=0;labelBackgroundColor=none;strokeWidth=1;fontFamily=Verdana;fontSize=8;align=center;" vertex="1" parent="PG6WniDf5yg5BW96tbUo-62">
          <mxGeometry x="255" y="65" width="100" height="60" as="geometry" />
        </mxCell>
        <mxCell id="PG6WniDf5yg5BW96tbUo-105" value="" style="edgeStyle=orthogonalEdgeStyle;rounded=0;orthogonalLoop=1;jettySize=auto;html=1;entryX=0.5;entryY=0;entryDx=0;entryDy=0;" edge="1" parent="PG6WniDf5yg5BW96tbUo-62" source="PG6WniDf5yg5BW96tbUo-101" target="PG6WniDf5yg5BW96tbUo-106">
          <mxGeometry relative="1" as="geometry">
            <mxPoint x="305" y="320" as="targetPoint" />
          </mxGeometry>
        </mxCell>
        <mxCell id="PG6WniDf5yg5BW96tbUo-101" value="&lt;ol style=&quot;font-size: 12px;&quot;&gt;&lt;li&gt;获取日程创建控制器句柄&lt;/li&gt;&lt;li&gt;日程控制器工作状态置1&lt;/li&gt;&lt;/ol&gt;" style="rounded=1;whiteSpace=wrap;html=1;shadow=0;labelBackgroundColor=none;strokeWidth=1;fontFamily=Verdana;fontSize=8;align=center;" vertex="1" parent="PG6WniDf5yg5BW96tbUo-62">
          <mxGeometry x="237.5" y="180" width="135" height="60" as="geometry" />
        </mxCell>
        <mxCell id="PG6WniDf5yg5BW96tbUo-114" value="" style="edgeStyle=orthogonalEdgeStyle;rounded=0;orthogonalLoop=1;jettySize=auto;html=1;" edge="1" parent="PG6WniDf5yg5BW96tbUo-62" source="PG6WniDf5yg5BW96tbUo-106" target="PG6WniDf5yg5BW96tbUo-113">
          <mxGeometry relative="1" as="geometry" />
        </mxCell>
        <mxCell id="PG6WniDf5yg5BW96tbUo-115" value="N" style="edgeLabel;html=1;align=center;verticalAlign=middle;resizable=0;points=[];" vertex="1" connectable="0" parent="PG6WniDf5yg5BW96tbUo-114">
          <mxGeometry x="-0.3453" y="2" relative="1" as="geometry">
            <mxPoint as="offset" />
          </mxGeometry>
        </mxCell>
        <mxCell id="PG6WniDf5yg5BW96tbUo-130" style="edgeStyle=orthogonalEdgeStyle;rounded=0;orthogonalLoop=1;jettySize=auto;html=1;entryX=1;entryY=0.5;entryDx=0;entryDy=0;" edge="1" parent="PG6WniDf5yg5BW96tbUo-62" source="PG6WniDf5yg5BW96tbUo-106" target="PG6WniDf5yg5BW96tbUo-129">
          <mxGeometry relative="1" as="geometry" />
        </mxCell>
        <mxCell id="PG6WniDf5yg5BW96tbUo-131" value="Y" style="edgeLabel;html=1;align=center;verticalAlign=middle;resizable=0;points=[];" vertex="1" connectable="0" parent="PG6WniDf5yg5BW96tbUo-130">
          <mxGeometry x="-0.1137" y="-1" relative="1" as="geometry">
            <mxPoint as="offset" />
          </mxGeometry>
        </mxCell>
        <mxCell id="PG6WniDf5yg5BW96tbUo-106" value="失败序列队列是否有数据" style="rhombus;whiteSpace=wrap;html=1;" vertex="1" parent="PG6WniDf5yg5BW96tbUo-62">
          <mxGeometry x="265" y="289" width="80" height="80" as="geometry" />
        </mxCell>
        <mxCell id="PG6WniDf5yg5BW96tbUo-117" value="" style="edgeStyle=orthogonalEdgeStyle;rounded=0;orthogonalLoop=1;jettySize=auto;html=1;" edge="1" parent="PG6WniDf5yg5BW96tbUo-62" source="PG6WniDf5yg5BW96tbUo-113" target="PG6WniDf5yg5BW96tbUo-116">
          <mxGeometry relative="1" as="geometry" />
        </mxCell>
        <mxCell id="PG6WniDf5yg5BW96tbUo-118" value="Y" style="edgeLabel;html=1;align=center;verticalAlign=middle;resizable=0;points=[];" vertex="1" connectable="0" parent="PG6WniDf5yg5BW96tbUo-117">
          <mxGeometry x="-0.398" y="-1" relative="1" as="geometry">
            <mxPoint as="offset" />
          </mxGeometry>
        </mxCell>
        <mxCell id="PG6WniDf5yg5BW96tbUo-113" value="成功序列队列是否有数据" style="rhombus;whiteSpace=wrap;html=1;" vertex="1" parent="PG6WniDf5yg5BW96tbUo-62">
          <mxGeometry x="265" y="449" width="80" height="80" as="geometry" />
        </mxCell>
        <mxCell id="PG6WniDf5yg5BW96tbUo-120" style="edgeStyle=orthogonalEdgeStyle;rounded=0;orthogonalLoop=1;jettySize=auto;html=1;" edge="1" parent="PG6WniDf5yg5BW96tbUo-62" source="PG6WniDf5yg5BW96tbUo-116" target="PG6WniDf5yg5BW96tbUo-119">
          <mxGeometry relative="1" as="geometry" />
        </mxCell>
        <mxCell id="PG6WniDf5yg5BW96tbUo-121" value="Y" style="edgeLabel;html=1;align=center;verticalAlign=middle;resizable=0;points=[];" vertex="1" connectable="0" parent="PG6WniDf5yg5BW96tbUo-120">
          <mxGeometry x="-0.3312" relative="1" as="geometry">
            <mxPoint as="offset" />
          </mxGeometry>
        </mxCell>
        <mxCell id="PG6WniDf5yg5BW96tbUo-116" value="成功序列号与序列号数组中的元素是否相等" style="rhombus;whiteSpace=wrap;html=1;" vertex="1" parent="PG6WniDf5yg5BW96tbUo-62">
          <mxGeometry x="265" y="580" width="80" height="80" as="geometry" />
        </mxCell>
        <mxCell id="PG6WniDf5yg5BW96tbUo-123" style="edgeStyle=orthogonalEdgeStyle;rounded=0;orthogonalLoop=1;jettySize=auto;html=1;entryX=0.5;entryY=0;entryDx=0;entryDy=0;" edge="1" parent="PG6WniDf5yg5BW96tbUo-62" source="PG6WniDf5yg5BW96tbUo-119" target="PG6WniDf5yg5BW96tbUo-122">
          <mxGeometry relative="1" as="geometry" />
        </mxCell>
        <mxCell id="PG6WniDf5yg5BW96tbUo-119" value="将掩码相应的位置1" style="rounded=1;whiteSpace=wrap;html=1;" vertex="1" parent="PG6WniDf5yg5BW96tbUo-62">
          <mxGeometry x="245" y="710" width="120" height="60" as="geometry" />
        </mxCell>
        <mxCell id="PG6WniDf5yg5BW96tbUo-125" style="edgeStyle=orthogonalEdgeStyle;rounded=0;orthogonalLoop=1;jettySize=auto;html=1;entryX=0.5;entryY=0;entryDx=0;entryDy=0;" edge="1" parent="PG6WniDf5yg5BW96tbUo-62" source="PG6WniDf5yg5BW96tbUo-122" target="PG6WniDf5yg5BW96tbUo-124">
          <mxGeometry relative="1" as="geometry" />
        </mxCell>
        <mxCell id="PG6WniDf5yg5BW96tbUo-128" value="Y" style="edgeLabel;html=1;align=center;verticalAlign=middle;resizable=0;points=[];" vertex="1" connectable="0" parent="PG6WniDf5yg5BW96tbUo-125">
          <mxGeometry x="-0.5169" y="-2" relative="1" as="geometry">
            <mxPoint as="offset" />
          </mxGeometry>
        </mxCell>
        <mxCell id="PG6WniDf5yg5BW96tbUo-136" style="edgeStyle=orthogonalEdgeStyle;rounded=1;orthogonalLoop=1;jettySize=auto;html=1;entryX=1;entryY=0.5;entryDx=0;entryDy=0;curved=0;" edge="1" parent="PG6WniDf5yg5BW96tbUo-62" source="PG6WniDf5yg5BW96tbUo-122" target="PG6WniDf5yg5BW96tbUo-132">
          <mxGeometry relative="1" as="geometry">
            <Array as="points">
              <mxPoint x="385" y="850" />
              <mxPoint x="385" y="1050" />
            </Array>
          </mxGeometry>
        </mxCell>
        <mxCell id="PG6WniDf5yg5BW96tbUo-137" value="N" style="edgeLabel;html=1;align=center;verticalAlign=middle;resizable=0;points=[];" vertex="1" connectable="0" parent="PG6WniDf5yg5BW96tbUo-136">
          <mxGeometry x="-0.0789" y="-1" relative="1" as="geometry">
            <mxPoint as="offset" />
          </mxGeometry>
        </mxCell>
        <mxCell id="PG6WniDf5yg5BW96tbUo-122" value="计算掩码有多少个位被置1，是否与创建总数相等" style="rhombus;whiteSpace=wrap;html=1;" vertex="1" parent="PG6WniDf5yg5BW96tbUo-62">
          <mxGeometry x="265" y="810" width="80" height="80" as="geometry" />
        </mxCell>
        <mxCell id="PG6WniDf5yg5BW96tbUo-133" style="edgeStyle=orthogonalEdgeStyle;rounded=0;orthogonalLoop=1;jettySize=auto;html=1;entryX=0.5;entryY=0;entryDx=0;entryDy=0;" edge="1" parent="PG6WniDf5yg5BW96tbUo-62" source="PG6WniDf5yg5BW96tbUo-124" target="PG6WniDf5yg5BW96tbUo-132">
          <mxGeometry relative="1" as="geometry" />
        </mxCell>
        <mxCell id="PG6WniDf5yg5BW96tbUo-124" value="&lt;ol&gt;&lt;li&gt;日程控制器工作状态置0&lt;/li&gt;&lt;li&gt;删除定时器&lt;/li&gt;&lt;/ol&gt;" style="rounded=1;whiteSpace=wrap;html=1;" vertex="1" parent="PG6WniDf5yg5BW96tbUo-62">
          <mxGeometry x="245" y="924" width="120" height="60" as="geometry" />
        </mxCell>
        <mxCell id="PG6WniDf5yg5BW96tbUo-129" value="删除定时器" style="rounded=1;whiteSpace=wrap;html=1;" vertex="1" parent="PG6WniDf5yg5BW96tbUo-62">
          <mxGeometry x="80" y="299" width="120" height="60" as="geometry" />
        </mxCell>
        <mxCell id="PG6WniDf5yg5BW96tbUo-143" style="edgeStyle=orthogonalEdgeStyle;rounded=0;orthogonalLoop=1;jettySize=auto;html=1;entryX=0.5;entryY=0;entryDx=0;entryDy=0;" edge="1" parent="PG6WniDf5yg5BW96tbUo-62" source="PG6WniDf5yg5BW96tbUo-132" target="PG6WniDf5yg5BW96tbUo-142">
          <mxGeometry relative="1" as="geometry" />
        </mxCell>
        <mxCell id="PG6WniDf5yg5BW96tbUo-132" value="发送响应" style="rounded=1;whiteSpace=wrap;html=1;" vertex="1" parent="PG6WniDf5yg5BW96tbUo-62">
          <mxGeometry x="245" y="1020" width="120" height="60" as="geometry" />
        </mxCell>
        <mxCell id="PG6WniDf5yg5BW96tbUo-145" style="edgeStyle=orthogonalEdgeStyle;rounded=0;orthogonalLoop=1;jettySize=auto;html=1;entryX=1;entryY=0.5;entryDx=0;entryDy=0;" edge="1" parent="PG6WniDf5yg5BW96tbUo-62" source="PG6WniDf5yg5BW96tbUo-142" target="PG6WniDf5yg5BW96tbUo-168">
          <mxGeometry relative="1" as="geometry">
            <mxPoint x="480" y="1160" as="targetPoint" />
            <Array as="points">
              <mxPoint x="460" y="1160" />
              <mxPoint x="460" y="1740" />
            </Array>
          </mxGeometry>
        </mxCell>
        <mxCell id="PG6WniDf5yg5BW96tbUo-146" value="Y" style="edgeLabel;html=1;align=center;verticalAlign=middle;resizable=0;points=[];" vertex="1" connectable="0" parent="PG6WniDf5yg5BW96tbUo-145">
          <mxGeometry x="-0.0838" y="2" relative="1" as="geometry">
            <mxPoint as="offset" />
          </mxGeometry>
        </mxCell>
        <mxCell id="PG6WniDf5yg5BW96tbUo-148" value="" style="edgeStyle=orthogonalEdgeStyle;rounded=0;orthogonalLoop=1;jettySize=auto;html=1;" edge="1" parent="PG6WniDf5yg5BW96tbUo-62" source="PG6WniDf5yg5BW96tbUo-142" target="PG6WniDf5yg5BW96tbUo-147">
          <mxGeometry relative="1" as="geometry" />
        </mxCell>
        <mxCell id="PG6WniDf5yg5BW96tbUo-149" value="N" style="edgeLabel;html=1;align=center;verticalAlign=middle;resizable=0;points=[];" vertex="1" connectable="0" parent="PG6WniDf5yg5BW96tbUo-148">
          <mxGeometry x="-0.3028" relative="1" as="geometry">
            <mxPoint as="offset" />
          </mxGeometry>
        </mxCell>
        <mxCell id="PG6WniDf5yg5BW96tbUo-142" value="控制器状态是否为0" style="rhombus;whiteSpace=wrap;html=1;" vertex="1" parent="PG6WniDf5yg5BW96tbUo-62">
          <mxGeometry x="265" y="1120" width="80" height="80" as="geometry" />
        </mxCell>
        <mxCell id="PG6WniDf5yg5BW96tbUo-153" style="edgeStyle=orthogonalEdgeStyle;rounded=0;orthogonalLoop=1;jettySize=auto;html=1;" edge="1" parent="PG6WniDf5yg5BW96tbUo-62" source="PG6WniDf5yg5BW96tbUo-147" target="PG6WniDf5yg5BW96tbUo-152">
          <mxGeometry relative="1" as="geometry" />
        </mxCell>
        <mxCell id="PG6WniDf5yg5BW96tbUo-154" value="Y" style="edgeLabel;html=1;align=center;verticalAlign=middle;resizable=0;points=[];" vertex="1" connectable="0" parent="PG6WniDf5yg5BW96tbUo-153">
          <mxGeometry x="-0.2311" y="2" relative="1" as="geometry">
            <mxPoint as="offset" />
          </mxGeometry>
        </mxCell>
        <mxCell id="PG6WniDf5yg5BW96tbUo-158" value="" style="edgeStyle=orthogonalEdgeStyle;rounded=0;orthogonalLoop=1;jettySize=auto;html=1;" edge="1" parent="PG6WniDf5yg5BW96tbUo-62" source="PG6WniDf5yg5BW96tbUo-147" target="PG6WniDf5yg5BW96tbUo-157">
          <mxGeometry relative="1" as="geometry" />
        </mxCell>
        <mxCell id="PG6WniDf5yg5BW96tbUo-159" value="N" style="edgeLabel;html=1;align=center;verticalAlign=middle;resizable=0;points=[];" vertex="1" connectable="0" parent="PG6WniDf5yg5BW96tbUo-158">
          <mxGeometry x="-0.2905" y="1" relative="1" as="geometry">
            <mxPoint as="offset" />
          </mxGeometry>
        </mxCell>
        <mxCell id="PG6WniDf5yg5BW96tbUo-147" value="是否超时" style="rhombus;whiteSpace=wrap;html=1;" vertex="1" parent="PG6WniDf5yg5BW96tbUo-62">
          <mxGeometry x="265" y="1280" width="80" height="80" as="geometry" />
        </mxCell>
        <mxCell id="PG6WniDf5yg5BW96tbUo-152" value="&lt;ol&gt;&lt;li&gt;控制器状态置超时状态&lt;/li&gt;&lt;li&gt;删除定时器&lt;/li&gt;&lt;li&gt;发送超时响应&lt;/li&gt;&lt;/ol&gt;" style="rounded=1;whiteSpace=wrap;html=1;" vertex="1" parent="PG6WniDf5yg5BW96tbUo-62">
          <mxGeometry x="80" y="1290" width="120" height="60" as="geometry" />
        </mxCell>
        <mxCell id="PG6WniDf5yg5BW96tbUo-161" style="edgeStyle=orthogonalEdgeStyle;rounded=1;orthogonalLoop=1;jettySize=auto;html=1;entryX=0;entryY=0.5;entryDx=0;entryDy=0;curved=0;" edge="1" parent="PG6WniDf5yg5BW96tbUo-62" source="PG6WniDf5yg5BW96tbUo-157" target="PG6WniDf5yg5BW96tbUo-168">
          <mxGeometry relative="1" as="geometry">
            <mxPoint x="200" y="1480" as="targetPoint" />
            <Array as="points">
              <mxPoint x="180" y="1480" />
              <mxPoint x="180" y="1740" />
            </Array>
          </mxGeometry>
        </mxCell>
        <mxCell id="PG6WniDf5yg5BW96tbUo-162" value="Y" style="edgeLabel;html=1;align=center;verticalAlign=middle;resizable=0;points=[];" vertex="1" connectable="0" parent="PG6WniDf5yg5BW96tbUo-161">
          <mxGeometry x="-0.0462" y="1" relative="1" as="geometry">
            <mxPoint as="offset" />
          </mxGeometry>
        </mxCell>
        <mxCell id="PG6WniDf5yg5BW96tbUo-164" style="edgeStyle=orthogonalEdgeStyle;rounded=0;orthogonalLoop=1;jettySize=auto;html=1;entryX=0.5;entryY=0;entryDx=0;entryDy=0;" edge="1" parent="PG6WniDf5yg5BW96tbUo-62" source="PG6WniDf5yg5BW96tbUo-157" target="PG6WniDf5yg5BW96tbUo-163">
          <mxGeometry relative="1" as="geometry" />
        </mxCell>
        <mxCell id="PG6WniDf5yg5BW96tbUo-165" value="N" style="edgeLabel;html=1;align=center;verticalAlign=middle;resizable=0;points=[];" vertex="1" connectable="0" parent="PG6WniDf5yg5BW96tbUo-164">
          <mxGeometry x="-0.3067" y="3" relative="1" as="geometry">
            <mxPoint x="-3" y="1" as="offset" />
          </mxGeometry>
        </mxCell>
        <mxCell id="PG6WniDf5yg5BW96tbUo-157" value="创建日程请求是否发送完毕" style="rhombus;whiteSpace=wrap;html=1;" vertex="1" parent="PG6WniDf5yg5BW96tbUo-62">
          <mxGeometry x="265" y="1440" width="80" height="80" as="geometry" />
        </mxCell>
        <mxCell id="PG6WniDf5yg5BW96tbUo-169" value="" style="edgeStyle=orthogonalEdgeStyle;rounded=0;orthogonalLoop=1;jettySize=auto;html=1;" edge="1" parent="PG6WniDf5yg5BW96tbUo-62" source="PG6WniDf5yg5BW96tbUo-163" target="PG6WniDf5yg5BW96tbUo-168">
          <mxGeometry relative="1" as="geometry" />
        </mxCell>
        <mxCell id="PG6WniDf5yg5BW96tbUo-163" value="发送创建日程请求" style="rounded=1;whiteSpace=wrap;html=1;" vertex="1" parent="PG6WniDf5yg5BW96tbUo-62">
          <mxGeometry x="245" y="1570" width="120" height="60" as="geometry" />
        </mxCell>
        <mxCell id="PG6WniDf5yg5BW96tbUo-168" value="结束" style="rounded=1;whiteSpace=wrap;html=1;" vertex="1" parent="PG6WniDf5yg5BW96tbUo-62">
          <mxGeometry x="245" y="1710" width="120" height="60" as="geometry" />
        </mxCell>
        <mxCell id="PG6WniDf5yg5BW96tbUo-109" style="edgeStyle=orthogonalEdgeStyle;rounded=1;orthogonalLoop=1;jettySize=auto;html=1;entryX=1;entryY=0.5;entryDx=0;entryDy=0;curved=0;exitX=0;exitY=0.5;exitDx=0;exitDy=0;" edge="1" parent="PG6WniDf5yg5BW96tbUo-40" source="PG6WniDf5yg5BW96tbUo-129" target="PG6WniDf5yg5BW96tbUo-93">
          <mxGeometry relative="1" as="geometry">
            <Array as="points">
              <mxPoint x="630" y="349" />
              <mxPoint x="630" y="520" />
            </Array>
          </mxGeometry>
        </mxCell>
        <mxCell id="PG6WniDf5yg5BW96tbUo-112" value="发送err响应" style="edgeLabel;html=1;align=center;verticalAlign=middle;resizable=0;points=[];" vertex="1" connectable="0" parent="PG6WniDf5yg5BW96tbUo-109">
          <mxGeometry x="-0.241" y="-2" relative="1" as="geometry">
            <mxPoint x="-53" as="offset" />
          </mxGeometry>
        </mxCell>
        <mxCell id="PG6WniDf5yg5BW96tbUo-140" style="edgeStyle=orthogonalEdgeStyle;rounded=1;orthogonalLoop=1;jettySize=auto;html=1;entryX=1;entryY=0.5;entryDx=0;entryDy=0;curved=0;" edge="1" parent="PG6WniDf5yg5BW96tbUo-40" source="PG6WniDf5yg5BW96tbUo-132" target="PG6WniDf5yg5BW96tbUo-93">
          <mxGeometry relative="1" as="geometry" />
        </mxCell>
        <mxCell id="PG6WniDf5yg5BW96tbUo-141" value="发送busy或者创建完成响应" style="edgeLabel;html=1;align=center;verticalAlign=middle;resizable=0;points=[];" vertex="1" connectable="0" parent="PG6WniDf5yg5BW96tbUo-140">
          <mxGeometry x="-0.7234" y="-2" relative="1" as="geometry">
            <mxPoint as="offset" />
          </mxGeometry>
        </mxCell>
        <mxCell id="PG6WniDf5yg5BW96tbUo-155" style="edgeStyle=orthogonalEdgeStyle;rounded=1;orthogonalLoop=1;jettySize=auto;html=1;entryX=1;entryY=0.5;entryDx=0;entryDy=0;curved=0;" edge="1" parent="PG6WniDf5yg5BW96tbUo-40" source="PG6WniDf5yg5BW96tbUo-152" target="PG6WniDf5yg5BW96tbUo-93">
          <mxGeometry relative="1" as="geometry" />
        </mxCell>
        <mxCell id="PG6WniDf5yg5BW96tbUo-156" value="发送超时响应" style="edgeLabel;html=1;align=center;verticalAlign=middle;resizable=0;points=[];" vertex="1" connectable="0" parent="PG6WniDf5yg5BW96tbUo-155">
          <mxGeometry x="-0.6671" y="-2" relative="1" as="geometry">
            <mxPoint as="offset" />
          </mxGeometry>
        </mxCell>
        <mxCell id="PG6WniDf5yg5BW96tbUo-103" value="json解析" style="swimlane;html=1;startSize=20;" vertex="1" parent="PG6WniDf5yg5BW96tbUo-40">
          <mxGeometry x="1180" y="20" width="1030" height="1870" as="geometry" />
        </mxCell>
        <mxCell id="PG6WniDf5yg5BW96tbUo-172" value="" style="edgeStyle=orthogonalEdgeStyle;rounded=0;orthogonalLoop=1;jettySize=auto;html=1;" edge="1" parent="PG6WniDf5yg5BW96tbUo-103" source="PG6WniDf5yg5BW96tbUo-170" target="PG6WniDf5yg5BW96tbUo-171">
          <mxGeometry relative="1" as="geometry" />
        </mxCell>
        <mxCell id="PG6WniDf5yg5BW96tbUo-170" value="初始化json解析器" style="rounded=1;whiteSpace=wrap;html=1;" vertex="1" parent="PG6WniDf5yg5BW96tbUo-103">
          <mxGeometry x="290" y="40" width="120" height="60" as="geometry" />
        </mxCell>
        <mxCell id="PG6WniDf5yg5BW96tbUo-176" style="edgeStyle=orthogonalEdgeStyle;rounded=1;orthogonalLoop=1;jettySize=auto;html=1;exitX=0.5;exitY=1;exitDx=0;exitDy=0;curved=0;" edge="1" parent="PG6WniDf5yg5BW96tbUo-103" source="PG6WniDf5yg5BW96tbUo-171" target="PG6WniDf5yg5BW96tbUo-175">
          <mxGeometry relative="1" as="geometry" />
        </mxCell>
        <mxCell id="PG6WniDf5yg5BW96tbUo-180" style="edgeStyle=orthogonalEdgeStyle;rounded=1;orthogonalLoop=1;jettySize=auto;html=1;exitX=0.5;exitY=1;exitDx=0;exitDy=0;curved=0;" edge="1" parent="PG6WniDf5yg5BW96tbUo-103" source="PG6WniDf5yg5BW96tbUo-171" target="PG6WniDf5yg5BW96tbUo-177">
          <mxGeometry relative="1" as="geometry" />
        </mxCell>
        <mxCell id="PG6WniDf5yg5BW96tbUo-171" value="json解析，根据键匹配相应的处理函数" style="rounded=1;whiteSpace=wrap;html=1;" vertex="1" parent="PG6WniDf5yg5BW96tbUo-103">
          <mxGeometry x="290" y="155" width="120" height="60" as="geometry" />
        </mxCell>
        <mxCell id="PG6WniDf5yg5BW96tbUo-185" style="edgeStyle=orthogonalEdgeStyle;rounded=0;orthogonalLoop=1;jettySize=auto;html=1;entryX=0.5;entryY=0;entryDx=0;entryDy=0;" edge="1" parent="PG6WniDf5yg5BW96tbUo-103" source="PG6WniDf5yg5BW96tbUo-175" target="PG6WniDf5yg5BW96tbUo-187">
          <mxGeometry relative="1" as="geometry">
            <mxPoint x="120" y="440" as="targetPoint" />
          </mxGeometry>
        </mxCell>
        <mxCell id="PG6WniDf5yg5BW96tbUo-186" value="Y" style="edgeLabel;html=1;align=center;verticalAlign=middle;resizable=0;points=[];" vertex="1" connectable="0" parent="PG6WniDf5yg5BW96tbUo-185">
          <mxGeometry x="-0.3198" y="-1" relative="1" as="geometry">
            <mxPoint as="offset" />
          </mxGeometry>
        </mxCell>
        <mxCell id="PG6WniDf5yg5BW96tbUo-175" value="是否匹配到rev字段" style="rhombus;whiteSpace=wrap;html=1;" vertex="1" parent="PG6WniDf5yg5BW96tbUo-103">
          <mxGeometry x="80" y="310" width="80" height="80" as="geometry" />
        </mxCell>
        <mxCell id="PG6WniDf5yg5BW96tbUo-207" style="edgeStyle=orthogonalEdgeStyle;rounded=0;orthogonalLoop=1;jettySize=auto;html=1;entryX=0.5;entryY=0;entryDx=0;entryDy=0;" edge="1" parent="PG6WniDf5yg5BW96tbUo-103" source="PG6WniDf5yg5BW96tbUo-177" target="PG6WniDf5yg5BW96tbUo-197">
          <mxGeometry relative="1" as="geometry" />
        </mxCell>
        <mxCell id="PG6WniDf5yg5BW96tbUo-177" value="是否匹配到code字段" style="rhombus;whiteSpace=wrap;html=1;" vertex="1" parent="PG6WniDf5yg5BW96tbUo-103">
          <mxGeometry x="520" y="310" width="80" height="80" as="geometry" />
        </mxCell>
        <mxCell id="PG6WniDf5yg5BW96tbUo-187" value="JsonHandleRev" style="swimlane;whiteSpace=wrap;html=1;" vertex="1" parent="PG6WniDf5yg5BW96tbUo-103">
          <mxGeometry x="20" y="460" width="310" height="470" as="geometry" />
        </mxCell>
        <mxCell id="PG6WniDf5yg5BW96tbUo-190" style="edgeStyle=orthogonalEdgeStyle;rounded=0;orthogonalLoop=1;jettySize=auto;html=1;entryX=0.5;entryY=0;entryDx=0;entryDy=0;" edge="1" parent="PG6WniDf5yg5BW96tbUo-187" source="PG6WniDf5yg5BW96tbUo-188" target="PG6WniDf5yg5BW96tbUo-189">
          <mxGeometry relative="1" as="geometry" />
        </mxCell>
        <mxCell id="PG6WniDf5yg5BW96tbUo-188" value="获取json上下文" style="rounded=1;whiteSpace=wrap;html=1;" vertex="1" parent="PG6WniDf5yg5BW96tbUo-187">
          <mxGeometry x="40" y="30" width="120" height="60" as="geometry" />
        </mxCell>
        <mxCell id="PG6WniDf5yg5BW96tbUo-192" style="edgeStyle=orthogonalEdgeStyle;rounded=0;orthogonalLoop=1;jettySize=auto;html=1;entryX=0.5;entryY=0;entryDx=0;entryDy=0;" edge="1" parent="PG6WniDf5yg5BW96tbUo-187" source="PG6WniDf5yg5BW96tbUo-189" target="PG6WniDf5yg5BW96tbUo-191">
          <mxGeometry relative="1" as="geometry" />
        </mxCell>
        <mxCell id="PG6WniDf5yg5BW96tbUo-193" value="Y" style="edgeLabel;html=1;align=center;verticalAlign=middle;resizable=0;points=[];" vertex="1" connectable="0" parent="PG6WniDf5yg5BW96tbUo-192">
          <mxGeometry x="-0.3705" y="-2" relative="1" as="geometry">
            <mxPoint as="offset" />
          </mxGeometry>
        </mxCell>
        <mxCell id="PG6WniDf5yg5BW96tbUo-195" style="edgeStyle=orthogonalEdgeStyle;rounded=0;orthogonalLoop=1;jettySize=auto;html=1;" edge="1" parent="PG6WniDf5yg5BW96tbUo-187" source="PG6WniDf5yg5BW96tbUo-189" target="PG6WniDf5yg5BW96tbUo-194">
          <mxGeometry relative="1" as="geometry" />
        </mxCell>
        <mxCell id="PG6WniDf5yg5BW96tbUo-196" value="N" style="edgeLabel;html=1;align=center;verticalAlign=middle;resizable=0;points=[];" vertex="1" connectable="0" parent="PG6WniDf5yg5BW96tbUo-195">
          <mxGeometry x="-0.2611" y="2" relative="1" as="geometry">
            <mxPoint as="offset" />
          </mxGeometry>
        </mxCell>
        <mxCell id="PG6WniDf5yg5BW96tbUo-189" value="报文序列号是否存在于序列拦截器队列中" style="rhombus;whiteSpace=wrap;html=1;" vertex="1" parent="PG6WniDf5yg5BW96tbUo-187">
          <mxGeometry x="60" y="120" width="80" height="80" as="geometry" />
        </mxCell>
        <mxCell id="PG6WniDf5yg5BW96tbUo-191" value="将序列号入成功序列队列" style="rounded=1;whiteSpace=wrap;html=1;" vertex="1" parent="PG6WniDf5yg5BW96tbUo-187">
          <mxGeometry x="40" y="240" width="120" height="60" as="geometry" />
        </mxCell>
        <mxCell id="PG6WniDf5yg5BW96tbUo-194" value="发送响应" style="rounded=1;whiteSpace=wrap;html=1;" vertex="1" parent="PG6WniDf5yg5BW96tbUo-187">
          <mxGeometry x="180" y="240" width="120" height="60" as="geometry" />
        </mxCell>
        <mxCell id="PG6WniDf5yg5BW96tbUo-197" value="JsonHandleCode" style="swimlane;whiteSpace=wrap;html=1;" vertex="1" parent="PG6WniDf5yg5BW96tbUo-103">
          <mxGeometry x="450" y="460" width="310" height="470" as="geometry" />
        </mxCell>
        <mxCell id="PG6WniDf5yg5BW96tbUo-209" style="edgeStyle=orthogonalEdgeStyle;rounded=0;orthogonalLoop=1;jettySize=auto;html=1;entryX=0.5;entryY=0;entryDx=0;entryDy=0;" edge="1" parent="PG6WniDf5yg5BW96tbUo-197" source="PG6WniDf5yg5BW96tbUo-199" target="PG6WniDf5yg5BW96tbUo-208">
          <mxGeometry relative="1" as="geometry" />
        </mxCell>
        <mxCell id="PG6WniDf5yg5BW96tbUo-199" value="获取json上下文" style="rounded=1;whiteSpace=wrap;html=1;" vertex="1" parent="PG6WniDf5yg5BW96tbUo-197">
          <mxGeometry x="40" y="30" width="120" height="60" as="geometry" />
        </mxCell>
        <mxCell id="PG6WniDf5yg5BW96tbUo-200" style="edgeStyle=orthogonalEdgeStyle;rounded=0;orthogonalLoop=1;jettySize=auto;html=1;entryX=0.5;entryY=0;entryDx=0;entryDy=0;" edge="1" parent="PG6WniDf5yg5BW96tbUo-197" source="PG6WniDf5yg5BW96tbUo-204" target="PG6WniDf5yg5BW96tbUo-205">
          <mxGeometry relative="1" as="geometry" />
        </mxCell>
        <mxCell id="PG6WniDf5yg5BW96tbUo-201" value="Y" style="edgeLabel;html=1;align=center;verticalAlign=middle;resizable=0;points=[];" vertex="1" connectable="0" parent="PG6WniDf5yg5BW96tbUo-200">
          <mxGeometry x="-0.3705" y="-2" relative="1" as="geometry">
            <mxPoint as="offset" />
          </mxGeometry>
        </mxCell>
        <mxCell id="PG6WniDf5yg5BW96tbUo-202" style="edgeStyle=orthogonalEdgeStyle;rounded=0;orthogonalLoop=1;jettySize=auto;html=1;" edge="1" parent="PG6WniDf5yg5BW96tbUo-197" source="PG6WniDf5yg5BW96tbUo-204" target="PG6WniDf5yg5BW96tbUo-206">
          <mxGeometry relative="1" as="geometry" />
        </mxCell>
        <mxCell id="PG6WniDf5yg5BW96tbUo-203" value="N" style="edgeLabel;html=1;align=center;verticalAlign=middle;resizable=0;points=[];" vertex="1" connectable="0" parent="PG6WniDf5yg5BW96tbUo-202">
          <mxGeometry x="-0.2611" y="2" relative="1" as="geometry">
            <mxPoint as="offset" />
          </mxGeometry>
        </mxCell>
        <mxCell id="PG6WniDf5yg5BW96tbUo-204" value="报文序列号是否存在于序列拦截器队列中" style="rhombus;whiteSpace=wrap;html=1;" vertex="1" parent="PG6WniDf5yg5BW96tbUo-197">
          <mxGeometry x="60" y="210" width="80" height="80" as="geometry" />
        </mxCell>
        <mxCell id="PG6WniDf5yg5BW96tbUo-205" value="将序列号入失败序列队列" style="rounded=1;whiteSpace=wrap;html=1;" vertex="1" parent="PG6WniDf5yg5BW96tbUo-197">
          <mxGeometry x="40" y="330" width="120" height="60" as="geometry" />
        </mxCell>
        <mxCell id="PG6WniDf5yg5BW96tbUo-206" value="发送响应" style="rounded=1;whiteSpace=wrap;html=1;" vertex="1" parent="PG6WniDf5yg5BW96tbUo-197">
          <mxGeometry x="180" y="330" width="120" height="60" as="geometry" />
        </mxCell>
        <mxCell id="PG6WniDf5yg5BW96tbUo-210" style="edgeStyle=orthogonalEdgeStyle;rounded=0;orthogonalLoop=1;jettySize=auto;html=1;entryX=0.5;entryY=0;entryDx=0;entryDy=0;" edge="1" parent="PG6WniDf5yg5BW96tbUo-197" source="PG6WniDf5yg5BW96tbUo-208" target="PG6WniDf5yg5BW96tbUo-204">
          <mxGeometry relative="1" as="geometry" />
        </mxCell>
        <mxCell id="PG6WniDf5yg5BW96tbUo-208" value="解析错误代号" style="rounded=1;whiteSpace=wrap;html=1;" vertex="1" parent="PG6WniDf5yg5BW96tbUo-197">
          <mxGeometry x="40" y="130" width="120" height="60" as="geometry" />
        </mxCell>
        <mxCell id="PG6WniDf5yg5BW96tbUo-211" value="&lt;font style=&quot;font-size: 12px;&quot;&gt;日程批量删除&lt;/font&gt;" style="swimlane;html=1;childLayout=stackLayout;startSize=20;rounded=0;shadow=0;labelBackgroundColor=none;strokeWidth=1;fontFamily=Verdana;fontSize=8;align=center;" vertex="1" parent="WIyWlLk6GJQsqaUBKTNV-1">
          <mxGeometry x="80" y="2910" width="2210" height="1890" as="geometry" />
        </mxCell>
        <mxCell id="PG6WniDf5yg5BW96tbUo-212" value="应用层" style="swimlane;html=1;startSize=20;" vertex="1" parent="PG6WniDf5yg5BW96tbUo-211">
          <mxGeometry y="20" width="160" height="1870" as="geometry" />
        </mxCell>
        <mxCell id="PG6WniDf5yg5BW96tbUo-213" value="发送批量删除日程请求" style="rounded=1;whiteSpace=wrap;html=1;shadow=0;labelBackgroundColor=none;strokeWidth=1;fontFamily=Verdana;fontSize=8;align=center;" vertex="1" parent="PG6WniDf5yg5BW96tbUo-212">
          <mxGeometry x="20" y="65" width="100" height="60" as="geometry" />
        </mxCell>
        <mxCell id="PG6WniDf5yg5BW96tbUo-214" value="应用层处理" style="rounded=1;whiteSpace=wrap;html=1;" vertex="1" parent="PG6WniDf5yg5BW96tbUo-212">
          <mxGeometry x="10" y="470" width="120" height="60" as="geometry" />
        </mxCell>
        <mxCell id="PG6WniDf5yg5BW96tbUo-215" style="edgeStyle=orthogonalEdgeStyle;rounded=1;html=1;labelBackgroundColor=none;startArrow=none;startFill=0;startSize=5;endArrow=classicThin;endFill=1;endSize=5;jettySize=auto;orthogonalLoop=1;strokeWidth=1;fontFamily=Verdana;fontSize=8" edge="1" parent="PG6WniDf5yg5BW96tbUo-211" source="PG6WniDf5yg5BW96tbUo-213" target="PG6WniDf5yg5BW96tbUo-218">
          <mxGeometry relative="1" as="geometry" />
        </mxCell>
        <mxCell id="PG6WniDf5yg5BW96tbUo-216" value="局域网" style="swimlane;html=1;startSize=20;" vertex="1" parent="PG6WniDf5yg5BW96tbUo-211">
          <mxGeometry x="160" y="20" width="410" height="1870" as="geometry" />
        </mxCell>
        <mxCell id="PG6WniDf5yg5BW96tbUo-217" value="" style="edgeStyle=orthogonalEdgeStyle;rounded=0;orthogonalLoop=1;jettySize=auto;html=1;entryX=0.5;entryY=0;entryDx=0;entryDy=0;" edge="1" parent="PG6WniDf5yg5BW96tbUo-216" source="PG6WniDf5yg5BW96tbUo-218" target="PG6WniDf5yg5BW96tbUo-221">
          <mxGeometry relative="1" as="geometry">
            <mxPoint x="260" y="205" as="targetPoint" />
          </mxGeometry>
        </mxCell>
        <mxCell id="PG6WniDf5yg5BW96tbUo-218" value="接收批量删除日程请求" style="rounded=1;whiteSpace=wrap;html=1;shadow=0;labelBackgroundColor=none;strokeWidth=1;fontFamily=Verdana;fontSize=8;align=center;" vertex="1" parent="PG6WniDf5yg5BW96tbUo-216">
          <mxGeometry x="210" y="65" width="100" height="60" as="geometry" />
        </mxCell>
        <mxCell id="PG6WniDf5yg5BW96tbUo-219" style="edgeStyle=orthogonalEdgeStyle;rounded=0;orthogonalLoop=1;jettySize=auto;html=1;entryX=0.5;entryY=0;entryDx=0;entryDy=0;" edge="1" parent="PG6WniDf5yg5BW96tbUo-216" source="PG6WniDf5yg5BW96tbUo-221" target="PG6WniDf5yg5BW96tbUo-222">
          <mxGeometry relative="1" as="geometry" />
        </mxCell>
        <mxCell id="PG6WniDf5yg5BW96tbUo-220" value="Y" style="edgeLabel;html=1;align=center;verticalAlign=middle;resizable=0;points=[];" vertex="1" connectable="0" parent="PG6WniDf5yg5BW96tbUo-219">
          <mxGeometry x="-0.3901" relative="1" as="geometry">
            <mxPoint as="offset" />
          </mxGeometry>
        </mxCell>
        <mxCell id="PG6WniDf5yg5BW96tbUo-221" value="日程创建、删除控制器都不在工作" style="rhombus;whiteSpace=wrap;html=1;" vertex="1" parent="PG6WniDf5yg5BW96tbUo-216">
          <mxGeometry x="220" y="170" width="80" height="80" as="geometry" />
        </mxCell>
        <mxCell id="PG6WniDf5yg5BW96tbUo-222" value="&lt;ol&gt;&lt;li style=&quot;&quot;&gt;&lt;span style=&quot;background-color: initial;&quot;&gt;初始化日程创建控制器、&lt;/span&gt;&lt;/li&gt;&lt;li style=&quot;&quot;&gt;&lt;span style=&quot;background-color: initial;&quot;&gt;初始化成功序列队列、失败序列队列、序列拦截器队列&lt;/span&gt;&lt;/li&gt;&lt;li style=&quot;&quot;&gt;创建软件定时器&lt;/li&gt;&lt;/ol&gt;" style="rounded=1;whiteSpace=wrap;html=1;align=left;fillStyle=auto;gradientColor=none;" vertex="1" parent="PG6WniDf5yg5BW96tbUo-216">
          <mxGeometry x="176.25" y="320" width="167.5" height="130" as="geometry" />
        </mxCell>
        <mxCell id="PG6WniDf5yg5BW96tbUo-223" style="edgeStyle=orthogonalEdgeStyle;rounded=1;orthogonalLoop=1;jettySize=auto;html=1;entryX=1;entryY=0.5;entryDx=0;entryDy=0;curved=0;" edge="1" parent="PG6WniDf5yg5BW96tbUo-211" source="PG6WniDf5yg5BW96tbUo-221" target="PG6WniDf5yg5BW96tbUo-214">
          <mxGeometry relative="1" as="geometry" />
        </mxCell>
        <mxCell id="PG6WniDf5yg5BW96tbUo-224" value="发送busy响应" style="edgeLabel;html=1;align=center;verticalAlign=middle;resizable=0;points=[];" vertex="1" connectable="0" parent="PG6WniDf5yg5BW96tbUo-223">
          <mxGeometry x="0.1109" y="1" relative="1" as="geometry">
            <mxPoint as="offset" />
          </mxGeometry>
        </mxCell>
        <mxCell id="PG6WniDf5yg5BW96tbUo-225" value="N" style="edgeLabel;html=1;align=center;verticalAlign=middle;resizable=0;points=[];" vertex="1" connectable="0" parent="PG6WniDf5yg5BW96tbUo-223">
          <mxGeometry x="-0.4109" y="1" relative="1" as="geometry">
            <mxPoint as="offset" />
          </mxGeometry>
        </mxCell>
        <mxCell id="PG6WniDf5yg5BW96tbUo-226" value="软件定时器" style="swimlane;html=1;startSize=20;" vertex="1" parent="PG6WniDf5yg5BW96tbUo-211">
          <mxGeometry x="570" y="20" width="610" height="1870" as="geometry" />
        </mxCell>
        <mxCell id="PG6WniDf5yg5BW96tbUo-227" value="" style="edgeStyle=orthogonalEdgeStyle;rounded=0;orthogonalLoop=1;jettySize=auto;html=1;" edge="1" parent="PG6WniDf5yg5BW96tbUo-226" source="PG6WniDf5yg5BW96tbUo-228" target="PG6WniDf5yg5BW96tbUo-230">
          <mxGeometry relative="1" as="geometry" />
        </mxCell>
        <mxCell id="PG6WniDf5yg5BW96tbUo-228" value="重新创建自己" style="rounded=1;whiteSpace=wrap;html=1;shadow=0;labelBackgroundColor=none;strokeWidth=1;fontFamily=Verdana;fontSize=8;align=center;" vertex="1" parent="PG6WniDf5yg5BW96tbUo-226">
          <mxGeometry x="255" y="65" width="100" height="60" as="geometry" />
        </mxCell>
        <mxCell id="PG6WniDf5yg5BW96tbUo-229" value="" style="edgeStyle=orthogonalEdgeStyle;rounded=0;orthogonalLoop=1;jettySize=auto;html=1;entryX=0.5;entryY=0;entryDx=0;entryDy=0;" edge="1" parent="PG6WniDf5yg5BW96tbUo-226" source="PG6WniDf5yg5BW96tbUo-230" target="PG6WniDf5yg5BW96tbUo-235">
          <mxGeometry relative="1" as="geometry">
            <mxPoint x="305" y="320" as="targetPoint" />
          </mxGeometry>
        </mxCell>
        <mxCell id="PG6WniDf5yg5BW96tbUo-230" value="&lt;ol style=&quot;font-size: 12px;&quot;&gt;&lt;li&gt;获取日程创建控制器句柄&lt;/li&gt;&lt;li&gt;日程控制器工作状态置1&lt;/li&gt;&lt;/ol&gt;" style="rounded=1;whiteSpace=wrap;html=1;shadow=0;labelBackgroundColor=none;strokeWidth=1;fontFamily=Verdana;fontSize=8;align=center;" vertex="1" parent="PG6WniDf5yg5BW96tbUo-226">
          <mxGeometry x="237.5" y="180" width="135" height="60" as="geometry" />
        </mxCell>
        <mxCell id="PG6WniDf5yg5BW96tbUo-231" value="" style="edgeStyle=orthogonalEdgeStyle;rounded=0;orthogonalLoop=1;jettySize=auto;html=1;" edge="1" parent="PG6WniDf5yg5BW96tbUo-226" source="PG6WniDf5yg5BW96tbUo-235" target="PG6WniDf5yg5BW96tbUo-238">
          <mxGeometry relative="1" as="geometry" />
        </mxCell>
        <mxCell id="PG6WniDf5yg5BW96tbUo-232" value="N" style="edgeLabel;html=1;align=center;verticalAlign=middle;resizable=0;points=[];" vertex="1" connectable="0" parent="PG6WniDf5yg5BW96tbUo-231">
          <mxGeometry x="-0.3453" y="2" relative="1" as="geometry">
            <mxPoint as="offset" />
          </mxGeometry>
        </mxCell>
        <mxCell id="PG6WniDf5yg5BW96tbUo-233" style="edgeStyle=orthogonalEdgeStyle;rounded=0;orthogonalLoop=1;jettySize=auto;html=1;entryX=1;entryY=0.5;entryDx=0;entryDy=0;" edge="1" parent="PG6WniDf5yg5BW96tbUo-226" source="PG6WniDf5yg5BW96tbUo-235" target="PG6WniDf5yg5BW96tbUo-251">
          <mxGeometry relative="1" as="geometry" />
        </mxCell>
        <mxCell id="PG6WniDf5yg5BW96tbUo-234" value="Y" style="edgeLabel;html=1;align=center;verticalAlign=middle;resizable=0;points=[];" vertex="1" connectable="0" parent="PG6WniDf5yg5BW96tbUo-233">
          <mxGeometry x="-0.1137" y="-1" relative="1" as="geometry">
            <mxPoint as="offset" />
          </mxGeometry>
        </mxCell>
        <mxCell id="PG6WniDf5yg5BW96tbUo-235" value="失败序列队列是否有数据" style="rhombus;whiteSpace=wrap;html=1;" vertex="1" parent="PG6WniDf5yg5BW96tbUo-226">
          <mxGeometry x="265" y="289" width="80" height="80" as="geometry" />
        </mxCell>
        <mxCell id="PG6WniDf5yg5BW96tbUo-236" value="" style="edgeStyle=orthogonalEdgeStyle;rounded=0;orthogonalLoop=1;jettySize=auto;html=1;" edge="1" parent="PG6WniDf5yg5BW96tbUo-226" source="PG6WniDf5yg5BW96tbUo-238" target="PG6WniDf5yg5BW96tbUo-241">
          <mxGeometry relative="1" as="geometry" />
        </mxCell>
        <mxCell id="PG6WniDf5yg5BW96tbUo-237" value="Y" style="edgeLabel;html=1;align=center;verticalAlign=middle;resizable=0;points=[];" vertex="1" connectable="0" parent="PG6WniDf5yg5BW96tbUo-236">
          <mxGeometry x="-0.398" y="-1" relative="1" as="geometry">
            <mxPoint as="offset" />
          </mxGeometry>
        </mxCell>
        <mxCell id="PG6WniDf5yg5BW96tbUo-238" value="成功序列队列是否有数据" style="rhombus;whiteSpace=wrap;html=1;" vertex="1" parent="PG6WniDf5yg5BW96tbUo-226">
          <mxGeometry x="265" y="449" width="80" height="80" as="geometry" />
        </mxCell>
        <mxCell id="PG6WniDf5yg5BW96tbUo-239" style="edgeStyle=orthogonalEdgeStyle;rounded=0;orthogonalLoop=1;jettySize=auto;html=1;" edge="1" parent="PG6WniDf5yg5BW96tbUo-226" source="PG6WniDf5yg5BW96tbUo-241" target="PG6WniDf5yg5BW96tbUo-243">
          <mxGeometry relative="1" as="geometry" />
        </mxCell>
        <mxCell id="PG6WniDf5yg5BW96tbUo-240" value="Y" style="edgeLabel;html=1;align=center;verticalAlign=middle;resizable=0;points=[];" vertex="1" connectable="0" parent="PG6WniDf5yg5BW96tbUo-239">
          <mxGeometry x="-0.3312" relative="1" as="geometry">
            <mxPoint as="offset" />
          </mxGeometry>
        </mxCell>
        <mxCell id="PG6WniDf5yg5BW96tbUo-241" value="成功序列号与序列号数组中的元素是否相等" style="rhombus;whiteSpace=wrap;html=1;" vertex="1" parent="PG6WniDf5yg5BW96tbUo-226">
          <mxGeometry x="265" y="580" width="80" height="80" as="geometry" />
        </mxCell>
        <mxCell id="PG6WniDf5yg5BW96tbUo-242" style="edgeStyle=orthogonalEdgeStyle;rounded=0;orthogonalLoop=1;jettySize=auto;html=1;entryX=0.5;entryY=0;entryDx=0;entryDy=0;" edge="1" parent="PG6WniDf5yg5BW96tbUo-226" source="PG6WniDf5yg5BW96tbUo-243" target="PG6WniDf5yg5BW96tbUo-248">
          <mxGeometry relative="1" as="geometry" />
        </mxCell>
        <mxCell id="PG6WniDf5yg5BW96tbUo-243" value="将掩码相应的位置1" style="rounded=1;whiteSpace=wrap;html=1;" vertex="1" parent="PG6WniDf5yg5BW96tbUo-226">
          <mxGeometry x="245" y="710" width="120" height="60" as="geometry" />
        </mxCell>
        <mxCell id="PG6WniDf5yg5BW96tbUo-244" style="edgeStyle=orthogonalEdgeStyle;rounded=0;orthogonalLoop=1;jettySize=auto;html=1;entryX=0.5;entryY=0;entryDx=0;entryDy=0;" edge="1" parent="PG6WniDf5yg5BW96tbUo-226" source="PG6WniDf5yg5BW96tbUo-248" target="PG6WniDf5yg5BW96tbUo-250">
          <mxGeometry relative="1" as="geometry" />
        </mxCell>
        <mxCell id="PG6WniDf5yg5BW96tbUo-245" value="Y" style="edgeLabel;html=1;align=center;verticalAlign=middle;resizable=0;points=[];" vertex="1" connectable="0" parent="PG6WniDf5yg5BW96tbUo-244">
          <mxGeometry x="-0.5169" y="-2" relative="1" as="geometry">
            <mxPoint as="offset" />
          </mxGeometry>
        </mxCell>
        <mxCell id="PG6WniDf5yg5BW96tbUo-246" style="edgeStyle=orthogonalEdgeStyle;rounded=1;orthogonalLoop=1;jettySize=auto;html=1;curved=0;entryX=0.5;entryY=0;entryDx=0;entryDy=0;" edge="1" parent="PG6WniDf5yg5BW96tbUo-226" source="PG6WniDf5yg5BW96tbUo-248" target="PG6WniDf5yg5BW96tbUo-258">
          <mxGeometry relative="1" as="geometry">
            <Array as="points">
              <mxPoint x="385" y="850" />
              <mxPoint x="385" y="1050" />
              <mxPoint x="305" y="1050" />
            </Array>
            <mxPoint x="310" y="1050" as="targetPoint" />
          </mxGeometry>
        </mxCell>
        <mxCell id="PG6WniDf5yg5BW96tbUo-247" value="N" style="edgeLabel;html=1;align=center;verticalAlign=middle;resizable=0;points=[];" vertex="1" connectable="0" parent="PG6WniDf5yg5BW96tbUo-246">
          <mxGeometry x="-0.0789" y="-1" relative="1" as="geometry">
            <mxPoint as="offset" />
          </mxGeometry>
        </mxCell>
        <mxCell id="PG6WniDf5yg5BW96tbUo-248" value="计算掩码有多少个位被置1，是否与创建总数相等" style="rhombus;whiteSpace=wrap;html=1;" vertex="1" parent="PG6WniDf5yg5BW96tbUo-226">
          <mxGeometry x="265" y="810" width="80" height="80" as="geometry" />
        </mxCell>
        <mxCell id="PG6WniDf5yg5BW96tbUo-249" style="edgeStyle=orthogonalEdgeStyle;rounded=0;orthogonalLoop=1;jettySize=auto;html=1;entryX=0.5;entryY=0;entryDx=0;entryDy=0;" edge="1" parent="PG6WniDf5yg5BW96tbUo-226" source="PG6WniDf5yg5BW96tbUo-250" target="PG6WniDf5yg5BW96tbUo-258">
          <mxGeometry relative="1" as="geometry">
            <mxPoint x="305" y="1020" as="targetPoint" />
          </mxGeometry>
        </mxCell>
        <mxCell id="PG6WniDf5yg5BW96tbUo-250" value="&lt;ol&gt;&lt;li&gt;日程控制器工作状态置0&lt;/li&gt;&lt;li&gt;删除定时器&lt;/li&gt;&lt;li&gt;发送响应&lt;/li&gt;&lt;/ol&gt;" style="rounded=1;whiteSpace=wrap;html=1;" vertex="1" parent="PG6WniDf5yg5BW96tbUo-226">
          <mxGeometry x="245" y="924" width="120" height="60" as="geometry" />
        </mxCell>
        <mxCell id="PG6WniDf5yg5BW96tbUo-251" value="删除定时器" style="rounded=1;whiteSpace=wrap;html=1;" vertex="1" parent="PG6WniDf5yg5BW96tbUo-226">
          <mxGeometry x="80" y="299" width="120" height="60" as="geometry" />
        </mxCell>
        <mxCell id="PG6WniDf5yg5BW96tbUo-254" style="edgeStyle=orthogonalEdgeStyle;rounded=0;orthogonalLoop=1;jettySize=auto;html=1;entryX=1;entryY=0.5;entryDx=0;entryDy=0;" edge="1" parent="PG6WniDf5yg5BW96tbUo-226" source="PG6WniDf5yg5BW96tbUo-258" target="PG6WniDf5yg5BW96tbUo-272">
          <mxGeometry relative="1" as="geometry">
            <mxPoint x="480" y="1160" as="targetPoint" />
            <Array as="points">
              <mxPoint x="460" y="1160" />
              <mxPoint x="460" y="1740" />
            </Array>
          </mxGeometry>
        </mxCell>
        <mxCell id="PG6WniDf5yg5BW96tbUo-255" value="Y" style="edgeLabel;html=1;align=center;verticalAlign=middle;resizable=0;points=[];" vertex="1" connectable="0" parent="PG6WniDf5yg5BW96tbUo-254">
          <mxGeometry x="-0.0838" y="2" relative="1" as="geometry">
            <mxPoint as="offset" />
          </mxGeometry>
        </mxCell>
        <mxCell id="PG6WniDf5yg5BW96tbUo-256" value="" style="edgeStyle=orthogonalEdgeStyle;rounded=0;orthogonalLoop=1;jettySize=auto;html=1;" edge="1" parent="PG6WniDf5yg5BW96tbUo-226" source="PG6WniDf5yg5BW96tbUo-258" target="PG6WniDf5yg5BW96tbUo-263">
          <mxGeometry relative="1" as="geometry" />
        </mxCell>
        <mxCell id="PG6WniDf5yg5BW96tbUo-257" value="N" style="edgeLabel;html=1;align=center;verticalAlign=middle;resizable=0;points=[];" vertex="1" connectable="0" parent="PG6WniDf5yg5BW96tbUo-256">
          <mxGeometry x="-0.3028" relative="1" as="geometry">
            <mxPoint as="offset" />
          </mxGeometry>
        </mxCell>
        <mxCell id="PG6WniDf5yg5BW96tbUo-258" value="控制器状态是否为0" style="rhombus;whiteSpace=wrap;html=1;" vertex="1" parent="PG6WniDf5yg5BW96tbUo-226">
          <mxGeometry x="265" y="1120" width="80" height="80" as="geometry" />
        </mxCell>
        <mxCell id="PG6WniDf5yg5BW96tbUo-259" style="edgeStyle=orthogonalEdgeStyle;rounded=0;orthogonalLoop=1;jettySize=auto;html=1;" edge="1" parent="PG6WniDf5yg5BW96tbUo-226" source="PG6WniDf5yg5BW96tbUo-263" target="PG6WniDf5yg5BW96tbUo-264">
          <mxGeometry relative="1" as="geometry" />
        </mxCell>
        <mxCell id="PG6WniDf5yg5BW96tbUo-260" value="Y" style="edgeLabel;html=1;align=center;verticalAlign=middle;resizable=0;points=[];" vertex="1" connectable="0" parent="PG6WniDf5yg5BW96tbUo-259">
          <mxGeometry x="-0.2311" y="2" relative="1" as="geometry">
            <mxPoint as="offset" />
          </mxGeometry>
        </mxCell>
        <mxCell id="PG6WniDf5yg5BW96tbUo-261" value="" style="edgeStyle=orthogonalEdgeStyle;rounded=0;orthogonalLoop=1;jettySize=auto;html=1;" edge="1" parent="PG6WniDf5yg5BW96tbUo-226" source="PG6WniDf5yg5BW96tbUo-263" target="PG6WniDf5yg5BW96tbUo-269">
          <mxGeometry relative="1" as="geometry" />
        </mxCell>
        <mxCell id="PG6WniDf5yg5BW96tbUo-262" value="N" style="edgeLabel;html=1;align=center;verticalAlign=middle;resizable=0;points=[];" vertex="1" connectable="0" parent="PG6WniDf5yg5BW96tbUo-261">
          <mxGeometry x="-0.2905" y="1" relative="1" as="geometry">
            <mxPoint as="offset" />
          </mxGeometry>
        </mxCell>
        <mxCell id="PG6WniDf5yg5BW96tbUo-263" value="是否超时" style="rhombus;whiteSpace=wrap;html=1;" vertex="1" parent="PG6WniDf5yg5BW96tbUo-226">
          <mxGeometry x="265" y="1280" width="80" height="80" as="geometry" />
        </mxCell>
        <mxCell id="PG6WniDf5yg5BW96tbUo-264" value="&lt;ol&gt;&lt;li&gt;控制器状态置超时状态&lt;/li&gt;&lt;li&gt;删除定时器&lt;/li&gt;&lt;li&gt;发送超时响应&lt;/li&gt;&lt;/ol&gt;" style="rounded=1;whiteSpace=wrap;html=1;" vertex="1" parent="PG6WniDf5yg5BW96tbUo-226">
          <mxGeometry x="80" y="1290" width="120" height="60" as="geometry" />
        </mxCell>
        <mxCell id="PG6WniDf5yg5BW96tbUo-265" style="edgeStyle=orthogonalEdgeStyle;rounded=1;orthogonalLoop=1;jettySize=auto;html=1;entryX=0;entryY=0.5;entryDx=0;entryDy=0;curved=0;" edge="1" parent="PG6WniDf5yg5BW96tbUo-226" source="PG6WniDf5yg5BW96tbUo-269" target="PG6WniDf5yg5BW96tbUo-272">
          <mxGeometry relative="1" as="geometry">
            <mxPoint x="200" y="1480" as="targetPoint" />
            <Array as="points">
              <mxPoint x="180" y="1480" />
              <mxPoint x="180" y="1740" />
            </Array>
          </mxGeometry>
        </mxCell>
        <mxCell id="PG6WniDf5yg5BW96tbUo-266" value="Y" style="edgeLabel;html=1;align=center;verticalAlign=middle;resizable=0;points=[];" vertex="1" connectable="0" parent="PG6WniDf5yg5BW96tbUo-265">
          <mxGeometry x="-0.0462" y="1" relative="1" as="geometry">
            <mxPoint as="offset" />
          </mxGeometry>
        </mxCell>
        <mxCell id="PG6WniDf5yg5BW96tbUo-267" style="edgeStyle=orthogonalEdgeStyle;rounded=0;orthogonalLoop=1;jettySize=auto;html=1;entryX=0.5;entryY=0;entryDx=0;entryDy=0;" edge="1" parent="PG6WniDf5yg5BW96tbUo-226" source="PG6WniDf5yg5BW96tbUo-269" target="PG6WniDf5yg5BW96tbUo-271">
          <mxGeometry relative="1" as="geometry" />
        </mxCell>
        <mxCell id="PG6WniDf5yg5BW96tbUo-268" value="N" style="edgeLabel;html=1;align=center;verticalAlign=middle;resizable=0;points=[];" vertex="1" connectable="0" parent="PG6WniDf5yg5BW96tbUo-267">
          <mxGeometry x="-0.3067" y="3" relative="1" as="geometry">
            <mxPoint x="-3" y="1" as="offset" />
          </mxGeometry>
        </mxCell>
        <mxCell id="PG6WniDf5yg5BW96tbUo-269" value="创建日程请求是否发送完毕" style="rhombus;whiteSpace=wrap;html=1;" vertex="1" parent="PG6WniDf5yg5BW96tbUo-226">
          <mxGeometry x="265" y="1440" width="80" height="80" as="geometry" />
        </mxCell>
        <mxCell id="PG6WniDf5yg5BW96tbUo-270" value="" style="edgeStyle=orthogonalEdgeStyle;rounded=0;orthogonalLoop=1;jettySize=auto;html=1;" edge="1" parent="PG6WniDf5yg5BW96tbUo-226" source="PG6WniDf5yg5BW96tbUo-271" target="PG6WniDf5yg5BW96tbUo-272">
          <mxGeometry relative="1" as="geometry" />
        </mxCell>
        <mxCell id="PG6WniDf5yg5BW96tbUo-271" value="发送创建日程请求" style="rounded=1;whiteSpace=wrap;html=1;" vertex="1" parent="PG6WniDf5yg5BW96tbUo-226">
          <mxGeometry x="245" y="1570" width="120" height="60" as="geometry" />
        </mxCell>
        <mxCell id="PG6WniDf5yg5BW96tbUo-272" value="结束" style="rounded=1;whiteSpace=wrap;html=1;" vertex="1" parent="PG6WniDf5yg5BW96tbUo-226">
          <mxGeometry x="245" y="1710" width="120" height="60" as="geometry" />
        </mxCell>
        <mxCell id="PG6WniDf5yg5BW96tbUo-273" style="edgeStyle=orthogonalEdgeStyle;rounded=1;orthogonalLoop=1;jettySize=auto;html=1;entryX=1;entryY=0.5;entryDx=0;entryDy=0;curved=0;exitX=0;exitY=0.5;exitDx=0;exitDy=0;" edge="1" parent="PG6WniDf5yg5BW96tbUo-211" source="PG6WniDf5yg5BW96tbUo-251" target="PG6WniDf5yg5BW96tbUo-214">
          <mxGeometry relative="1" as="geometry">
            <Array as="points">
              <mxPoint x="630" y="349" />
              <mxPoint x="630" y="520" />
            </Array>
          </mxGeometry>
        </mxCell>
        <mxCell id="PG6WniDf5yg5BW96tbUo-274" value="发送err响应" style="edgeLabel;html=1;align=center;verticalAlign=middle;resizable=0;points=[];" vertex="1" connectable="0" parent="PG6WniDf5yg5BW96tbUo-273">
          <mxGeometry x="-0.241" y="-2" relative="1" as="geometry">
            <mxPoint x="-53" as="offset" />
          </mxGeometry>
        </mxCell>
        <mxCell id="PG6WniDf5yg5BW96tbUo-275" style="edgeStyle=orthogonalEdgeStyle;rounded=1;orthogonalLoop=1;jettySize=auto;html=1;entryX=1;entryY=0.5;entryDx=0;entryDy=0;curved=0;exitX=-0.002;exitY=0.863;exitDx=0;exitDy=0;exitPerimeter=0;" edge="1" parent="PG6WniDf5yg5BW96tbUo-211" source="PG6WniDf5yg5BW96tbUo-250" target="PG6WniDf5yg5BW96tbUo-214">
          <mxGeometry relative="1" as="geometry">
            <mxPoint x="815" y="1070.030303030303" as="sourcePoint" />
          </mxGeometry>
        </mxCell>
        <mxCell id="PG6WniDf5yg5BW96tbUo-276" value="发送删除完成响应" style="edgeLabel;html=1;align=center;verticalAlign=middle;resizable=0;points=[];" vertex="1" connectable="0" parent="PG6WniDf5yg5BW96tbUo-275">
          <mxGeometry x="-0.7234" y="-2" relative="1" as="geometry">
            <mxPoint as="offset" />
          </mxGeometry>
        </mxCell>
        <mxCell id="PG6WniDf5yg5BW96tbUo-277" style="edgeStyle=orthogonalEdgeStyle;rounded=1;orthogonalLoop=1;jettySize=auto;html=1;entryX=1;entryY=0.5;entryDx=0;entryDy=0;curved=0;" edge="1" parent="PG6WniDf5yg5BW96tbUo-211" source="PG6WniDf5yg5BW96tbUo-264" target="PG6WniDf5yg5BW96tbUo-214">
          <mxGeometry relative="1" as="geometry" />
        </mxCell>
        <mxCell id="PG6WniDf5yg5BW96tbUo-278" value="发送超时响应" style="edgeLabel;html=1;align=center;verticalAlign=middle;resizable=0;points=[];" vertex="1" connectable="0" parent="PG6WniDf5yg5BW96tbUo-277">
          <mxGeometry x="-0.6671" y="-2" relative="1" as="geometry">
            <mxPoint as="offset" />
          </mxGeometry>
        </mxCell>
        <mxCell id="PG6WniDf5yg5BW96tbUo-279" value="json解析" style="swimlane;html=1;startSize=20;" vertex="1" parent="PG6WniDf5yg5BW96tbUo-211">
          <mxGeometry x="1180" y="20" width="1030" height="1870" as="geometry" />
        </mxCell>
        <mxCell id="PG6WniDf5yg5BW96tbUo-280" value="" style="edgeStyle=orthogonalEdgeStyle;rounded=0;orthogonalLoop=1;jettySize=auto;html=1;" edge="1" parent="PG6WniDf5yg5BW96tbUo-279" source="PG6WniDf5yg5BW96tbUo-281" target="PG6WniDf5yg5BW96tbUo-284">
          <mxGeometry relative="1" as="geometry" />
        </mxCell>
        <mxCell id="PG6WniDf5yg5BW96tbUo-281" value="初始化json解析器" style="rounded=1;whiteSpace=wrap;html=1;" vertex="1" parent="PG6WniDf5yg5BW96tbUo-279">
          <mxGeometry x="290" y="40" width="120" height="60" as="geometry" />
        </mxCell>
        <mxCell id="PG6WniDf5yg5BW96tbUo-282" style="edgeStyle=orthogonalEdgeStyle;rounded=1;orthogonalLoop=1;jettySize=auto;html=1;exitX=0.5;exitY=1;exitDx=0;exitDy=0;curved=0;" edge="1" parent="PG6WniDf5yg5BW96tbUo-279" source="PG6WniDf5yg5BW96tbUo-284" target="PG6WniDf5yg5BW96tbUo-287">
          <mxGeometry relative="1" as="geometry" />
        </mxCell>
        <mxCell id="PG6WniDf5yg5BW96tbUo-283" style="edgeStyle=orthogonalEdgeStyle;rounded=1;orthogonalLoop=1;jettySize=auto;html=1;exitX=0.5;exitY=1;exitDx=0;exitDy=0;curved=0;" edge="1" parent="PG6WniDf5yg5BW96tbUo-279" source="PG6WniDf5yg5BW96tbUo-284" target="PG6WniDf5yg5BW96tbUo-289">
          <mxGeometry relative="1" as="geometry" />
        </mxCell>
        <mxCell id="PG6WniDf5yg5BW96tbUo-284" value="json解析，根据键匹配相应的处理函数" style="rounded=1;whiteSpace=wrap;html=1;" vertex="1" parent="PG6WniDf5yg5BW96tbUo-279">
          <mxGeometry x="290" y="155" width="120" height="60" as="geometry" />
        </mxCell>
        <mxCell id="PG6WniDf5yg5BW96tbUo-285" style="edgeStyle=orthogonalEdgeStyle;rounded=0;orthogonalLoop=1;jettySize=auto;html=1;entryX=0.5;entryY=0;entryDx=0;entryDy=0;" edge="1" parent="PG6WniDf5yg5BW96tbUo-279" source="PG6WniDf5yg5BW96tbUo-287" target="PG6WniDf5yg5BW96tbUo-290">
          <mxGeometry relative="1" as="geometry">
            <mxPoint x="120" y="440" as="targetPoint" />
          </mxGeometry>
        </mxCell>
        <mxCell id="PG6WniDf5yg5BW96tbUo-286" value="Y" style="edgeLabel;html=1;align=center;verticalAlign=middle;resizable=0;points=[];" vertex="1" connectable="0" parent="PG6WniDf5yg5BW96tbUo-285">
          <mxGeometry x="-0.3198" y="-1" relative="1" as="geometry">
            <mxPoint as="offset" />
          </mxGeometry>
        </mxCell>
        <mxCell id="PG6WniDf5yg5BW96tbUo-287" value="是否匹配到rev字段" style="rhombus;whiteSpace=wrap;html=1;" vertex="1" parent="PG6WniDf5yg5BW96tbUo-279">
          <mxGeometry x="80" y="310" width="80" height="80" as="geometry" />
        </mxCell>
        <mxCell id="PG6WniDf5yg5BW96tbUo-288" style="edgeStyle=orthogonalEdgeStyle;rounded=0;orthogonalLoop=1;jettySize=auto;html=1;entryX=0.5;entryY=0;entryDx=0;entryDy=0;" edge="1" parent="PG6WniDf5yg5BW96tbUo-279" source="PG6WniDf5yg5BW96tbUo-289" target="PG6WniDf5yg5BW96tbUo-300">
          <mxGeometry relative="1" as="geometry" />
        </mxCell>
        <mxCell id="PG6WniDf5yg5BW96tbUo-289" value="是否匹配到code字段" style="rhombus;whiteSpace=wrap;html=1;" vertex="1" parent="PG6WniDf5yg5BW96tbUo-279">
          <mxGeometry x="520" y="310" width="80" height="80" as="geometry" />
        </mxCell>
        <mxCell id="PG6WniDf5yg5BW96tbUo-290" value="JsonHandleRev" style="swimlane;whiteSpace=wrap;html=1;" vertex="1" parent="PG6WniDf5yg5BW96tbUo-279">
          <mxGeometry x="20" y="460" width="310" height="470" as="geometry" />
        </mxCell>
        <mxCell id="PG6WniDf5yg5BW96tbUo-291" style="edgeStyle=orthogonalEdgeStyle;rounded=0;orthogonalLoop=1;jettySize=auto;html=1;entryX=0.5;entryY=0;entryDx=0;entryDy=0;" edge="1" parent="PG6WniDf5yg5BW96tbUo-290" source="PG6WniDf5yg5BW96tbUo-292" target="PG6WniDf5yg5BW96tbUo-297">
          <mxGeometry relative="1" as="geometry" />
        </mxCell>
        <mxCell id="PG6WniDf5yg5BW96tbUo-292" value="获取json上下文" style="rounded=1;whiteSpace=wrap;html=1;" vertex="1" parent="PG6WniDf5yg5BW96tbUo-290">
          <mxGeometry x="40" y="30" width="120" height="60" as="geometry" />
        </mxCell>
        <mxCell id="PG6WniDf5yg5BW96tbUo-293" style="edgeStyle=orthogonalEdgeStyle;rounded=0;orthogonalLoop=1;jettySize=auto;html=1;entryX=0.5;entryY=0;entryDx=0;entryDy=0;" edge="1" parent="PG6WniDf5yg5BW96tbUo-290" source="PG6WniDf5yg5BW96tbUo-297" target="PG6WniDf5yg5BW96tbUo-298">
          <mxGeometry relative="1" as="geometry" />
        </mxCell>
        <mxCell id="PG6WniDf5yg5BW96tbUo-294" value="Y" style="edgeLabel;html=1;align=center;verticalAlign=middle;resizable=0;points=[];" vertex="1" connectable="0" parent="PG6WniDf5yg5BW96tbUo-293">
          <mxGeometry x="-0.3705" y="-2" relative="1" as="geometry">
            <mxPoint as="offset" />
          </mxGeometry>
        </mxCell>
        <mxCell id="PG6WniDf5yg5BW96tbUo-295" style="edgeStyle=orthogonalEdgeStyle;rounded=0;orthogonalLoop=1;jettySize=auto;html=1;" edge="1" parent="PG6WniDf5yg5BW96tbUo-290" source="PG6WniDf5yg5BW96tbUo-297" target="PG6WniDf5yg5BW96tbUo-299">
          <mxGeometry relative="1" as="geometry" />
        </mxCell>
        <mxCell id="PG6WniDf5yg5BW96tbUo-296" value="N" style="edgeLabel;html=1;align=center;verticalAlign=middle;resizable=0;points=[];" vertex="1" connectable="0" parent="PG6WniDf5yg5BW96tbUo-295">
          <mxGeometry x="-0.2611" y="2" relative="1" as="geometry">
            <mxPoint as="offset" />
          </mxGeometry>
        </mxCell>
        <mxCell id="PG6WniDf5yg5BW96tbUo-297" value="报文序列号是否存在于序列拦截器队列中" style="rhombus;whiteSpace=wrap;html=1;" vertex="1" parent="PG6WniDf5yg5BW96tbUo-290">
          <mxGeometry x="60" y="120" width="80" height="80" as="geometry" />
        </mxCell>
        <mxCell id="PG6WniDf5yg5BW96tbUo-298" value="将序列号入成功序列队列" style="rounded=1;whiteSpace=wrap;html=1;" vertex="1" parent="PG6WniDf5yg5BW96tbUo-290">
          <mxGeometry x="40" y="240" width="120" height="60" as="geometry" />
        </mxCell>
        <mxCell id="PG6WniDf5yg5BW96tbUo-299" value="发送响应" style="rounded=1;whiteSpace=wrap;html=1;" vertex="1" parent="PG6WniDf5yg5BW96tbUo-290">
          <mxGeometry x="180" y="240" width="120" height="60" as="geometry" />
        </mxCell>
        <mxCell id="PG6WniDf5yg5BW96tbUo-300" value="JsonHandleCode" style="swimlane;whiteSpace=wrap;html=1;" vertex="1" parent="PG6WniDf5yg5BW96tbUo-279">
          <mxGeometry x="450" y="460" width="310" height="470" as="geometry" />
        </mxCell>
        <mxCell id="PG6WniDf5yg5BW96tbUo-301" style="edgeStyle=orthogonalEdgeStyle;rounded=0;orthogonalLoop=1;jettySize=auto;html=1;entryX=0.5;entryY=0;entryDx=0;entryDy=0;" edge="1" parent="PG6WniDf5yg5BW96tbUo-300" source="PG6WniDf5yg5BW96tbUo-302" target="PG6WniDf5yg5BW96tbUo-311">
          <mxGeometry relative="1" as="geometry" />
        </mxCell>
        <mxCell id="PG6WniDf5yg5BW96tbUo-302" value="获取json上下文" style="rounded=1;whiteSpace=wrap;html=1;" vertex="1" parent="PG6WniDf5yg5BW96tbUo-300">
          <mxGeometry x="40" y="30" width="120" height="60" as="geometry" />
        </mxCell>
        <mxCell id="PG6WniDf5yg5BW96tbUo-303" style="edgeStyle=orthogonalEdgeStyle;rounded=0;orthogonalLoop=1;jettySize=auto;html=1;entryX=0.5;entryY=0;entryDx=0;entryDy=0;" edge="1" parent="PG6WniDf5yg5BW96tbUo-300" source="PG6WniDf5yg5BW96tbUo-307" target="PG6WniDf5yg5BW96tbUo-308">
          <mxGeometry relative="1" as="geometry" />
        </mxCell>
        <mxCell id="PG6WniDf5yg5BW96tbUo-304" value="Y" style="edgeLabel;html=1;align=center;verticalAlign=middle;resizable=0;points=[];" vertex="1" connectable="0" parent="PG6WniDf5yg5BW96tbUo-303">
          <mxGeometry x="-0.3705" y="-2" relative="1" as="geometry">
            <mxPoint as="offset" />
          </mxGeometry>
        </mxCell>
        <mxCell id="PG6WniDf5yg5BW96tbUo-305" style="edgeStyle=orthogonalEdgeStyle;rounded=0;orthogonalLoop=1;jettySize=auto;html=1;" edge="1" parent="PG6WniDf5yg5BW96tbUo-300" source="PG6WniDf5yg5BW96tbUo-307" target="PG6WniDf5yg5BW96tbUo-309">
          <mxGeometry relative="1" as="geometry" />
        </mxCell>
        <mxCell id="PG6WniDf5yg5BW96tbUo-306" value="N" style="edgeLabel;html=1;align=center;verticalAlign=middle;resizable=0;points=[];" vertex="1" connectable="0" parent="PG6WniDf5yg5BW96tbUo-305">
          <mxGeometry x="-0.2611" y="2" relative="1" as="geometry">
            <mxPoint as="offset" />
          </mxGeometry>
        </mxCell>
        <mxCell id="PG6WniDf5yg5BW96tbUo-307" value="报文序列号是否存在于序列拦截器队列中" style="rhombus;whiteSpace=wrap;html=1;" vertex="1" parent="PG6WniDf5yg5BW96tbUo-300">
          <mxGeometry x="60" y="210" width="80" height="80" as="geometry" />
        </mxCell>
        <mxCell id="PG6WniDf5yg5BW96tbUo-308" value="将序列号入失败序列队列" style="rounded=1;whiteSpace=wrap;html=1;" vertex="1" parent="PG6WniDf5yg5BW96tbUo-300">
          <mxGeometry x="40" y="330" width="120" height="60" as="geometry" />
        </mxCell>
        <mxCell id="PG6WniDf5yg5BW96tbUo-309" value="发送响应" style="rounded=1;whiteSpace=wrap;html=1;" vertex="1" parent="PG6WniDf5yg5BW96tbUo-300">
          <mxGeometry x="180" y="330" width="120" height="60" as="geometry" />
        </mxCell>
        <mxCell id="PG6WniDf5yg5BW96tbUo-310" style="edgeStyle=orthogonalEdgeStyle;rounded=0;orthogonalLoop=1;jettySize=auto;html=1;entryX=0.5;entryY=0;entryDx=0;entryDy=0;" edge="1" parent="PG6WniDf5yg5BW96tbUo-300" source="PG6WniDf5yg5BW96tbUo-311" target="PG6WniDf5yg5BW96tbUo-307">
          <mxGeometry relative="1" as="geometry" />
        </mxCell>
        <mxCell id="PG6WniDf5yg5BW96tbUo-311" value="解析错误代号" style="rounded=1;whiteSpace=wrap;html=1;" vertex="1" parent="PG6WniDf5yg5BW96tbUo-300">
          <mxGeometry x="40" y="130" width="120" height="60" as="geometry" />
        </mxCell>
      </root>
    </mxGraphModel>
  </diagram>
</mxfile>
